<svg width="173" height="216" viewBox="0 0 173 216" fill="none" xmlns="http://www.w3.org/2000/svg">
<rect width="173" height="216" fill="#FFF8ED"/>
<g clip-path="url(#clip0_89_1801)">
<path d="M73.0581 59.5508H67.5073V65.1015H73.0581V59.5508Z" fill="black"/>
<path d="M78.6088 59.5508H73.0581V65.1015H78.6088V59.5508Z" fill="black"/>
<path d="M89.7104 59.5508H84.1597V65.1015H89.7104V59.5508Z" fill="black"/>
<path d="M106.363 59.5508H100.812V65.1015H106.363V59.5508Z" fill="black"/>
<path d="M111.914 59.5508H106.363V65.1015H111.914V59.5508Z" fill="black"/>
<path d="M67.5073 65.1016H61.9565V70.6523H67.5073V65.1016Z" fill="black"/>
<path d="M84.1596 65.1016H78.6089V70.6523H84.1596V65.1016Z" fill="black"/>
<path d="M89.7104 65.1016H84.1597V70.6523H89.7104V65.1016Z" fill="black"/>
<path d="M106.363 65.1016H100.812V70.6523H106.363V65.1016Z" fill="black"/>
<path d="M111.914 65.1016H106.363V70.6523H111.914V65.1016Z" fill="black"/>
<path d="M67.5073 70.6523H61.9565V76.2031H67.5073V70.6523Z" fill="black"/>
<path d="M73.0581 70.6523H67.5073V76.2031H73.0581V70.6523Z" fill="black"/>
<path d="M78.6088 70.6523H73.0581V76.2031H78.6088V70.6523Z" fill="black"/>
<path d="M84.1596 70.6523H78.6089V76.2031H84.1596V70.6523Z" fill="black"/>
<path d="M100.812 70.6523H95.2612V76.2031H100.812V70.6523Z" fill="black"/>
<path d="M106.363 70.6523H100.812V76.2031H106.363V70.6523Z" fill="black"/>
<path d="M73.0581 76.2031H67.5073V81.7539H73.0581V76.2031Z" fill="black"/>
<path d="M78.6088 76.2031H73.0581V81.7539H78.6088V76.2031Z" fill="black"/>
<path d="M84.1596 76.2031H78.6089V81.7539H84.1596V76.2031Z" fill="black"/>
<path d="M67.5073 81.7539H61.9565V87.3046H67.5073V81.7539Z" fill="black"/>
<path d="M84.1596 81.7539H78.6089V87.3046H84.1596V81.7539Z" fill="black"/>
<path d="M95.2612 81.7539H89.7104V87.3046H95.2612V81.7539Z" fill="black"/>
<path d="M106.363 81.7539H100.812V87.3046H106.363V81.7539Z" fill="black"/>
<path d="M67.5073 87.3047H61.9565V92.8554H67.5073V87.3047Z" fill="black"/>
<path d="M73.0581 87.3047H67.5073V92.8554H73.0581V87.3047Z" fill="black"/>
<path d="M89.7104 87.3047H84.1597V92.8554H89.7104V87.3047Z" fill="black"/>
<path d="M95.2612 87.3047H89.7104V92.8554H95.2612V87.3047Z" fill="black"/>
<path d="M100.812 87.3047H95.2612V92.8554H100.812V87.3047Z" fill="black"/>
<path d="M106.363 87.3047H100.812V92.8554H106.363V87.3047Z" fill="black"/>
<path d="M67.5073 92.8555H61.9565V98.4062H67.5073V92.8555Z" fill="black"/>
<path d="M78.6088 92.8555H73.0581V98.4062H78.6088V92.8555Z" fill="black"/>
<path d="M89.7104 92.8555H84.1597V98.4062H89.7104V92.8555Z" fill="black"/>
<path d="M100.812 92.8555H95.2612V98.4062H100.812V92.8555Z" fill="black"/>
<path d="M111.914 92.8555H106.363V98.4062H111.914V92.8555Z" fill="black"/>
<path d="M67.5073 98.4058H61.9565V103.957H67.5073V98.4058Z" fill="black"/>
<path d="M73.0581 98.4058H67.5073V103.957H73.0581V98.4058Z" fill="black"/>
<path d="M84.1596 98.4058H78.6089V103.957H84.1596V98.4058Z" fill="black"/>
<path d="M89.7104 98.4058H84.1597V103.957H89.7104V98.4058Z" fill="black"/>
<path d="M106.363 98.4058H100.812V103.957H106.363V98.4058Z" fill="black"/>
<path d="M23.1015 103.957H17.5508V109.507H23.1015V103.957Z" fill="black"/>
<path d="M28.6523 103.957H23.1016V109.507H28.6523V103.957Z" fill="black"/>
<path d="M39.7539 103.957H34.2031V109.507H39.7539V103.957Z" fill="black"/>
<path d="M56.4062 103.957H50.8555V109.507H56.4062V103.957Z" fill="black"/>
<path d="M61.9565 103.957H56.4058V109.507H61.9565V103.957Z" fill="black"/>
<path d="M78.6088 103.957H73.0581V109.507H78.6088V103.957Z" fill="black"/>
<path d="M84.1596 103.957H78.6089V109.507H84.1596V103.957Z" fill="black"/>
<path d="M95.2612 103.957H89.7104V109.507H95.2612V103.957Z" fill="black"/>
<path d="M123.015 103.957H117.464V109.507H123.015V103.957Z" fill="black"/>
<path d="M128.565 103.957H123.015V109.507H128.565V103.957Z" fill="black"/>
<path d="M134.116 103.957H128.565V109.507H134.116V103.957Z" fill="black"/>
<path d="M145.218 103.957H139.667V109.507H145.218V103.957Z" fill="black"/>
<path d="M150.769 103.957H145.218V109.507H150.769V103.957Z" fill="black"/>
<path d="M28.6523 109.507H23.1016V115.058H28.6523V109.507Z" fill="black"/>
<path d="M34.2031 109.507H28.6523V115.058H34.2031V109.507Z" fill="black"/>
<path d="M39.7539 109.507H34.2031V115.058H39.7539V109.507Z" fill="black"/>
<path d="M50.8554 109.507H45.3047V115.058H50.8554V109.507Z" fill="black"/>
<path d="M61.9565 109.507H56.4058V115.058H61.9565V109.507Z" fill="black"/>
<path d="M67.5073 109.507H61.9565V115.058H67.5073V109.507Z" fill="black"/>
<path d="M78.6088 109.507H73.0581V115.058H78.6088V109.507Z" fill="black"/>
<path d="M89.7104 109.507H84.1597V115.058H89.7104V109.507Z" fill="black"/>
<path d="M100.812 109.507H95.2612V115.058H100.812V109.507Z" fill="black"/>
<path d="M117.464 109.507H111.914V115.058H117.464V109.507Z" fill="black"/>
<path d="M123.015 109.507H117.464V115.058H123.015V109.507Z" fill="black"/>
<path d="M128.565 109.507H123.015V115.058H128.565V109.507Z" fill="black"/>
<path d="M156.319 109.507H150.769V115.058H156.319V109.507Z" fill="black"/>
<path d="M23.1015 115.058H17.5508V120.609H23.1015V115.058Z" fill="black"/>
<path d="M34.2031 115.058H28.6523V120.609H34.2031V115.058Z" fill="black"/>
<path d="M39.7539 115.058H34.2031V120.609H39.7539V115.058Z" fill="black"/>
<path d="M50.8554 115.058H45.3047V120.609H50.8554V115.058Z" fill="black"/>
<path d="M56.4062 115.058H50.8555V120.609H56.4062V115.058Z" fill="black"/>
<path d="M67.5073 115.058H61.9565V120.609H67.5073V115.058Z" fill="black"/>
<path d="M73.0581 115.058H67.5073V120.609H73.0581V115.058Z" fill="black"/>
<path d="M78.6088 115.058H73.0581V120.609H78.6088V115.058Z" fill="black"/>
<path d="M89.7104 115.058H84.1597V120.609H89.7104V115.058Z" fill="black"/>
<path d="M100.812 115.058H95.2612V120.609H100.812V115.058Z" fill="black"/>
<path d="M117.464 115.058H111.914V120.609H117.464V115.058Z" fill="black"/>
<path d="M134.116 115.058H128.565V120.609H134.116V115.058Z" fill="black"/>
<path d="M150.769 115.058H145.218V120.609H150.769V115.058Z" fill="black"/>
<path d="M156.319 115.058H150.769V120.609H156.319V115.058Z" fill="black"/>
<path d="M23.1015 120.609H17.5508V126.16H23.1015V120.609Z" fill="black"/>
<path d="M39.7539 120.609H34.2031V126.16H39.7539V120.609Z" fill="black"/>
<path d="M50.8554 120.609H45.3047V126.16H50.8554V120.609Z" fill="black"/>
<path d="M89.7104 120.609H84.1597V126.16H89.7104V120.609Z" fill="black"/>
<path d="M95.2612 120.609H89.7104V126.16H95.2612V120.609Z" fill="black"/>
<path d="M100.812 120.609H95.2612V126.16H100.812V120.609Z" fill="black"/>
<path d="M106.363 120.609H100.812V126.16H106.363V120.609Z" fill="black"/>
<path d="M111.914 120.609H106.363V126.16H111.914V120.609Z" fill="black"/>
<path d="M123.015 120.609H117.464V126.16H123.015V120.609Z" fill="black"/>
<path d="M128.565 120.609H123.015V126.16H128.565V120.609Z" fill="black"/>
<path d="M134.116 120.609H128.565V126.16H134.116V120.609Z" fill="black"/>
<path d="M28.6523 126.16H23.1016V131.71H28.6523V126.16Z" fill="black"/>
<path d="M34.2031 126.16H28.6523V131.71H34.2031V126.16Z" fill="black"/>
<path d="M39.7539 126.16H34.2031V131.71H39.7539V126.16Z" fill="black"/>
<path d="M50.8554 126.16H45.3047V131.71H50.8554V126.16Z" fill="black"/>
<path d="M56.4062 126.16H50.8555V131.71H56.4062V126.16Z" fill="black"/>
<path d="M84.1596 126.16H78.6089V131.71H84.1596V126.16Z" fill="black"/>
<path d="M89.7104 126.16H84.1597V131.71H89.7104V126.16Z" fill="black"/>
<path d="M95.2612 126.16H89.7104V131.71H95.2612V126.16Z" fill="black"/>
<path d="M100.812 126.16H95.2612V131.71H100.812V126.16Z" fill="black"/>
<path d="M123.015 126.16H117.464V131.71H123.015V126.16Z" fill="black"/>
<path d="M128.565 126.16H123.015V131.71H128.565V126.16Z" fill="black"/>
<path d="M139.667 126.16H134.116V131.71H139.667V126.16Z" fill="black"/>
<path d="M150.769 126.16H145.218V131.71H150.769V126.16Z" fill="black"/>
<path d="M156.319 126.16H150.769V131.71H156.319V126.16Z" fill="black"/>
<path d="M45.3046 131.71H39.7539V137.261H45.3046V131.71Z" fill="black"/>
<path d="M50.8554 131.71H45.3047V137.261H50.8554V131.71Z" fill="black"/>
<path d="M67.5073 131.71H61.9565V137.261H67.5073V131.71Z" fill="black"/>
<path d="M78.6088 131.71H73.0581V137.261H78.6088V131.71Z" fill="black"/>
<path d="M89.7104 131.71H84.1597V137.261H89.7104V131.71Z" fill="black"/>
<path d="M100.812 131.71H95.2612V137.261H100.812V131.71Z" fill="black"/>
<path d="M111.914 131.71H106.363V137.261H111.914V131.71Z" fill="black"/>
<path d="M123.015 131.71H117.464V137.261H123.015V131.71Z" fill="black"/>
<path d="M139.667 131.71H134.116V137.261H139.667V131.71Z" fill="black"/>
<path d="M145.218 131.71H139.667V137.261H145.218V131.71Z" fill="black"/>
<path d="M156.319 131.71H150.769V137.261H156.319V131.71Z" fill="black"/>
<path d="M23.1015 137.261H17.5508V142.812H23.1015V137.261Z" fill="black"/>
<path d="M34.2031 137.261H28.6523V142.812H34.2031V137.261Z" fill="black"/>
<path d="M45.3046 137.261H39.7539V142.812H45.3046V137.261Z" fill="black"/>
<path d="M50.8554 137.261H45.3047V142.812H50.8554V137.261Z" fill="black"/>
<path d="M56.4062 137.261H50.8555V142.812H56.4062V137.261Z" fill="black"/>
<path d="M67.5073 137.261H61.9565V142.812H67.5073V137.261Z" fill="black"/>
<path d="M78.6088 137.261H73.0581V142.812H78.6088V137.261Z" fill="black"/>
<path d="M84.1596 137.261H78.6089V142.812H84.1596V137.261Z" fill="black"/>
<path d="M89.7104 137.261H84.1597V142.812H89.7104V137.261Z" fill="black"/>
<path d="M95.2612 137.261H89.7104V142.812H95.2612V137.261Z" fill="black"/>
<path d="M111.914 137.261H106.363V142.812H111.914V137.261Z" fill="black"/>
<path d="M117.464 137.261H111.914V142.812H117.464V137.261Z" fill="black"/>
<path d="M123.015 137.261H117.464V142.812H123.015V137.261Z" fill="black"/>
<path d="M128.565 137.261H123.015V142.812H128.565V137.261Z" fill="black"/>
<path d="M145.218 137.261H139.667V142.812H145.218V137.261Z" fill="black"/>
<path d="M156.319 137.261H150.769V142.812H156.319V137.261Z" fill="black"/>
<path d="M28.6523 142.812H23.1016V148.363H28.6523V142.812Z" fill="black"/>
<path d="M39.7539 142.812H34.2031V148.363H39.7539V142.812Z" fill="black"/>
<path d="M45.3046 142.812H39.7539V148.363H45.3046V142.812Z" fill="black"/>
<path d="M50.8554 142.812H45.3047V148.363H50.8554V142.812Z" fill="black"/>
<path d="M73.0581 142.812H67.5073V148.363H73.0581V142.812Z" fill="black"/>
<path d="M95.2612 142.812H89.7104V148.363H95.2612V142.812Z" fill="black"/>
<path d="M100.812 142.812H95.2612V148.363H100.812V142.812Z" fill="black"/>
<path d="M111.914 142.812H106.363V148.363H111.914V142.812Z" fill="black"/>
<path d="M139.667 142.812H134.116V148.363H139.667V142.812Z" fill="black"/>
<path d="M150.769 142.812H145.218V148.363H150.769V142.812Z" fill="black"/>
<path d="M23.1015 148.363H17.5508V153.914H23.1015V148.363Z" fill="black"/>
<path d="M28.6523 148.363H23.1016V153.914H28.6523V148.363Z" fill="black"/>
<path d="M39.7539 148.363H34.2031V153.914H39.7539V148.363Z" fill="black"/>
<path d="M56.4062 148.363H50.8555V153.914H56.4062V148.363Z" fill="black"/>
<path d="M61.9565 148.363H56.4058V153.914H61.9565V148.363Z" fill="black"/>
<path d="M67.5073 148.363H61.9565V153.914H67.5073V148.363Z" fill="black"/>
<path d="M89.7104 148.363H84.1597V153.914H89.7104V148.363Z" fill="black"/>
<path d="M100.812 148.363H95.2612V153.914H100.812V148.363Z" fill="black"/>
<path d="M106.363 148.363H100.812V153.914H106.363V148.363Z" fill="black"/>
<path d="M139.667 148.363H134.116V153.914H139.667V148.363Z" fill="black"/>
<path d="M145.218 148.363H139.667V153.914H145.218V148.363Z" fill="black"/>
<path d="M67.5073 153.914H61.9565V159.464H67.5073V153.914Z" fill="black"/>
<path d="M84.1596 153.914H78.6089V159.464H84.1596V153.914Z" fill="black"/>
<path d="M89.7104 153.914H84.1597V159.464H89.7104V153.914Z" fill="black"/>
<path d="M95.2612 153.914H89.7104V159.464H95.2612V153.914Z" fill="black"/>
<path d="M106.363 153.914H100.812V159.464H106.363V153.914Z" fill="black"/>
<path d="M139.667 153.914H134.116V159.464H139.667V153.914Z" fill="black"/>
<path d="M145.218 153.914H139.667V159.464H145.218V153.914Z" fill="black"/>
<path d="M156.319 153.914H150.769V159.464H156.319V153.914Z" fill="black"/>
<path d="M67.5073 159.464H61.9565V165.015H67.5073V159.464Z" fill="black"/>
<path d="M73.0581 159.464H67.5073V165.015H73.0581V159.464Z" fill="black"/>
<path d="M100.812 159.464H95.2612V165.015H100.812V159.464Z" fill="black"/>
<path d="M106.363 159.464H100.812V165.015H106.363V159.464Z" fill="black"/>
<path d="M150.769 159.464H145.218V165.015H150.769V159.464Z" fill="black"/>
<path d="M156.319 159.464H150.769V165.015H156.319V159.464Z" fill="black"/>
<path d="M89.7104 165.015H84.1597V170.565H89.7104V165.015Z" fill="black"/>
<path d="M106.363 165.015H100.812V170.565H106.363V165.015Z" fill="black"/>
<path d="M139.667 165.015H134.116V170.565H139.667V165.015Z" fill="black"/>
<path d="M145.218 165.015H139.667V170.565H145.218V165.015Z" fill="black"/>
<path d="M89.7104 170.565H84.1597V176.116H89.7104V170.565Z" fill="black"/>
<path d="M95.2612 170.565H89.7104V176.116H95.2612V170.565Z" fill="black"/>
<path d="M67.5073 176.116H61.9565V181.667H67.5073V176.116Z" fill="black"/>
<path d="M95.2612 176.116H89.7104V181.667H95.2612V176.116Z" fill="black"/>
<path d="M100.812 176.116H95.2612V181.667H100.812V176.116Z" fill="black"/>
<path d="M106.363 176.116H100.812V181.667H106.363V176.116Z" fill="black"/>
<path d="M117.464 176.116H111.914V181.667H117.464V176.116Z" fill="black"/>
<path d="M134.116 176.116H128.565V181.667H134.116V176.116Z" fill="black"/>
<path d="M145.218 176.116H139.667V181.667H145.218V176.116Z" fill="black"/>
<path d="M73.0581 181.667H67.5073V187.218H73.0581V181.667Z" fill="black"/>
<path d="M78.6088 181.667H73.0581V187.218H78.6088V181.667Z" fill="black"/>
<path d="M89.7104 181.667H84.1597V187.218H89.7104V181.667Z" fill="black"/>
<path d="M95.2612 181.667H89.7104V187.218H95.2612V181.667Z" fill="black"/>
<path d="M100.812 181.667H95.2612V187.218H100.812V181.667Z" fill="black"/>
<path d="M111.914 181.667H106.363V187.218H111.914V181.667Z" fill="black"/>
<path d="M117.464 181.667H111.914V187.218H117.464V181.667Z" fill="black"/>
<path d="M128.565 181.667H123.015V187.218H128.565V181.667Z" fill="black"/>
<path d="M134.116 181.667H128.565V187.218H134.116V181.667Z" fill="black"/>
<path d="M139.667 181.667H134.116V187.218H139.667V181.667Z" fill="black"/>
<path d="M145.218 181.667H139.667V187.218H145.218V181.667Z" fill="black"/>
<path d="M156.319 181.667H150.769V187.218H156.319V181.667Z" fill="black"/>
<path d="M67.5073 187.218H61.9565V192.769H67.5073V187.218Z" fill="black"/>
<path d="M95.2612 187.218H89.7104V192.769H95.2612V187.218Z" fill="black"/>
<path d="M100.812 187.218H95.2612V192.769H100.812V187.218Z" fill="black"/>
<path d="M111.914 187.218H106.363V192.769H111.914V187.218Z" fill="black"/>
<path d="M117.464 187.218H111.914V192.769H117.464V187.218Z" fill="black"/>
<path d="M139.667 187.218H134.116V192.769H139.667V187.218Z" fill="black"/>
<path d="M67.5073 192.769H61.9565V198.319H67.5073V192.769Z" fill="black"/>
<path d="M78.6088 192.769H73.0581V198.319H78.6088V192.769Z" fill="black"/>
<path d="M95.2612 192.769H89.7104V198.319H95.2612V192.769Z" fill="black"/>
<path d="M100.812 192.769H95.2612V198.319H100.812V192.769Z" fill="black"/>
<path d="M111.914 192.769H106.363V198.319H111.914V192.769Z" fill="black"/>
<path d="M117.464 192.769H111.914V198.319H117.464V192.769Z" fill="black"/>
<path d="M128.565 192.769H123.015V198.319H128.565V192.769Z" fill="black"/>
<path d="M150.769 192.769H145.218V198.319H150.769V192.769Z" fill="black"/>
<path d="M156.319 192.769H150.769V198.319H156.319V192.769Z" fill="black"/>
<path d="M67.5073 59.5508H61.9565V65.1015H67.5073V59.5508Z" fill="#FFF8ED"/>
<path d="M84.1596 59.5508H78.6089V65.1015H84.1596V59.5508Z" fill="#FFF8ED"/>
<path d="M95.2612 59.5508H89.7104V65.1015H95.2612V59.5508Z" fill="#FFF8ED"/>
<path d="M100.812 59.5508H95.2612V65.1015H100.812V59.5508Z" fill="#FFF8ED"/>
<path d="M73.0581 65.1016H67.5073V70.6523H73.0581V65.1016Z" fill="#FFF8ED"/>
<path d="M78.6088 65.1016H73.0581V70.6523H78.6088V65.1016Z" fill="#FFF8ED"/>
<path d="M95.2612 65.1016H89.7104V70.6523H95.2612V65.1016Z" fill="#FFF8ED"/>
<path d="M100.812 65.1016H95.2612V70.6523H100.812V65.1016Z" fill="#FFF8ED"/>
<path d="M89.7104 70.6523H84.1597V76.2031H89.7104V70.6523Z" fill="#FFF8ED"/>
<path d="M95.2612 70.6523H89.7104V76.2031H95.2612V70.6523Z" fill="#FFF8ED"/>
<path d="M111.914 70.6523H106.363V76.2031H111.914V70.6523Z" fill="#FFF8ED"/>
<path d="M67.5073 76.2031H61.9565V81.7539H67.5073V76.2031Z" fill="#FFF8ED"/>
<path d="M89.7104 76.2031H84.1597V81.7539H89.7104V76.2031Z" fill="#FFF8ED"/>
<path d="M95.2612 76.2031H89.7104V81.7539H95.2612V76.2031Z" fill="#FFF8ED"/>
<path d="M100.812 76.2031H95.2612V81.7539H100.812V76.2031Z" fill="#FFF8ED"/>
<path d="M106.363 76.2031H100.812V81.7539H106.363V76.2031Z" fill="#FFF8ED"/>
<path d="M111.914 76.2031H106.363V81.7539H111.914V76.2031Z" fill="#FFF8ED"/>
<path d="M73.0581 81.7539H67.5073V87.3046H73.0581V81.7539Z" fill="#FFF8ED"/>
<path d="M78.6088 81.7539H73.0581V87.3046H78.6088V81.7539Z" fill="#FFF8ED"/>
<path d="M89.7104 81.7539H84.1597V87.3046H89.7104V81.7539Z" fill="#FFF8ED"/>
<path d="M100.812 81.7539H95.2612V87.3046H100.812V81.7539Z" fill="#FFF8ED"/>
<path d="M111.914 81.7539H106.363V87.3046H111.914V81.7539Z" fill="#FFF8ED"/>
<path d="M78.6088 87.3047H73.0581V92.8554H78.6088V87.3047Z" fill="#FFF8ED"/>
<path d="M84.1596 87.3047H78.6089V92.8554H84.1596V87.3047Z" fill="#FFF8ED"/>
<path d="M111.914 87.3047H106.363V92.8554H111.914V87.3047Z" fill="#FFF8ED"/>
<path d="M73.0581 92.8555H67.5073V98.4062H73.0581V92.8555Z" fill="#FFF8ED"/>
<path d="M84.1596 92.8555H78.6089V98.4062H84.1596V92.8555Z" fill="#FFF8ED"/>
<path d="M95.2612 92.8555H89.7104V98.4062H95.2612V92.8555Z" fill="#FFF8ED"/>
<path d="M106.363 92.8555H100.812V98.4062H106.363V92.8555Z" fill="#FFF8ED"/>
<path d="M78.6088 98.4058H73.0581V103.957H78.6088V98.4058Z" fill="#FFF8ED"/>
<path d="M95.2612 98.4058H89.7104V103.957H95.2612V98.4058Z" fill="#FFF8ED"/>
<path d="M100.812 98.4058H95.2612V103.957H100.812V98.4058Z" fill="#FFF8ED"/>
<path d="M111.914 98.4058H106.363V103.957H111.914V98.4058Z" fill="#FFF8ED"/>
<path d="M34.2031 103.957H28.6523V109.507H34.2031V103.957Z" fill="#FFF8ED"/>
<path d="M45.3046 103.957H39.7539V109.507H45.3046V103.957Z" fill="#FFF8ED"/>
<path d="M50.8554 103.957H45.3047V109.507H50.8554V103.957Z" fill="#FFF8ED"/>
<path d="M67.5073 103.957H61.9565V109.507H67.5073V103.957Z" fill="#FFF8ED"/>
<path d="M73.0581 103.957H67.5073V109.507H73.0581V103.957Z" fill="#FFF8ED"/>
<path d="M89.7104 103.957H84.1597V109.507H89.7104V103.957Z" fill="#FFF8ED"/>
<path d="M100.812 103.957H95.2612V109.507H100.812V103.957Z" fill="#FFF8ED"/>
<path d="M106.363 103.957H100.812V109.507H106.363V103.957Z" fill="#FFF8ED"/>
<path d="M111.914 103.957H106.363V109.507H111.914V103.957Z" fill="#FFF8ED"/>
<path d="M117.464 103.957H111.914V109.507H117.464V103.957Z" fill="#FFF8ED"/>
<path d="M139.667 103.957H134.116V109.507H139.667V103.957Z" fill="#FFF8ED"/>
<path d="M156.319 103.957H150.769V109.507H156.319V103.957Z" fill="#FFF8ED"/>
<path d="M23.1015 109.507H17.5508V115.058H23.1015V109.507Z" fill="#FFF8ED"/>
<path d="M45.3046 109.507H39.7539V115.058H45.3046V109.507Z" fill="#FFF8ED"/>
<path d="M56.4062 109.507H50.8555V115.058H56.4062V109.507Z" fill="#FFF8ED"/>
<path d="M73.0581 109.507H67.5073V115.058H73.0581V109.507Z" fill="#FFF8ED"/>
<path d="M84.1596 109.507H78.6089V115.058H84.1596V109.507Z" fill="#FFF8ED"/>
<path d="M95.2612 109.507H89.7104V115.058H95.2612V109.507Z" fill="#FFF8ED"/>
<path d="M106.363 109.507H100.812V115.058H106.363V109.507Z" fill="#FFF8ED"/>
<path d="M111.914 109.507H106.363V115.058H111.914V109.507Z" fill="#FFF8ED"/>
<path d="M134.116 109.507H128.565V115.058H134.116V109.507Z" fill="#FFF8ED"/>
<path d="M139.667 109.507H134.116V115.058H139.667V109.507Z" fill="#FFF8ED"/>
<path d="M145.218 109.507H139.667V115.058H145.218V109.507Z" fill="#FFF8ED"/>
<path d="M150.769 109.507H145.218V115.058H150.769V109.507Z" fill="#FFF8ED"/>
<path d="M28.6523 115.058H23.1016V120.609H28.6523V115.058Z" fill="#FFF8ED"/>
<path d="M45.3046 115.058H39.7539V120.609H45.3046V115.058Z" fill="#FFF8ED"/>
<path d="M61.9565 115.058H56.4058V120.609H61.9565V115.058Z" fill="#FFF8ED"/>
<path d="M84.1596 115.058H78.6089V120.609H84.1596V115.058Z" fill="#FFF8ED"/>
<path d="M95.2612 115.058H89.7104V120.609H95.2612V115.058Z" fill="#FFF8ED"/>
<path d="M106.363 115.058H100.812V120.609H106.363V115.058Z" fill="#FFF8ED"/>
<path d="M111.914 115.058H106.363V120.609H111.914V115.058Z" fill="#FFF8ED"/>
<path d="M123.015 115.058H117.464V120.609H123.015V115.058Z" fill="#FFF8ED"/>
<path d="M128.565 115.058H123.015V120.609H128.565V115.058Z" fill="#FFF8ED"/>
<path d="M139.667 115.058H134.116V120.609H139.667V115.058Z" fill="#FFF8ED"/>
<path d="M145.218 115.058H139.667V120.609H145.218V115.058Z" fill="#FFF8ED"/>
<path d="M28.6523 120.609H23.1016V126.16H28.6523V120.609Z" fill="#FFF8ED"/>
<path d="M34.2031 120.609H28.6523V126.16H34.2031V120.609Z" fill="#FFF8ED"/>
<path d="M45.3046 120.609H39.7539V126.16H45.3046V120.609Z" fill="#FFF8ED"/>
<path d="M56.4062 120.609H50.8555V126.16H56.4062V120.609Z" fill="#FFF8ED"/>
<path d="M61.9565 120.609H56.4058V126.16H61.9565V120.609Z" fill="#FFF8ED"/>
<path d="M67.5073 120.609H61.9565V126.16H67.5073V120.609Z" fill="#FFF8ED"/>
<path d="M73.0581 120.609H67.5073V126.16H73.0581V120.609Z" fill="#FFF8ED"/>
<path d="M78.6088 120.609H73.0581V126.16H78.6088V120.609Z" fill="#FFF8ED"/>
<path d="M84.1596 120.609H78.6089V126.16H84.1596V120.609Z" fill="#FFF8ED"/>
<path d="M117.464 120.609H111.914V126.16H117.464V120.609Z" fill="#FFF8ED"/>
<path d="M139.667 120.609H134.116V126.16H139.667V120.609Z" fill="#FFF8ED"/>
<path d="M145.218 120.609H139.667V126.16H145.218V120.609Z" fill="#FFF8ED"/>
<path d="M150.769 120.609H145.218V126.16H150.769V120.609Z" fill="#FFF8ED"/>
<path d="M156.319 120.609H150.769V126.16H156.319V120.609Z" fill="#FFF8ED"/>
<path d="M23.1015 126.16H17.5508V131.71H23.1015V126.16Z" fill="#FFF8ED"/>
<path d="M45.3046 126.16H39.7539V131.71H45.3046V126.16Z" fill="#FFF8ED"/>
<path d="M61.9565 126.16H56.4058V131.71H61.9565V126.16Z" fill="#FFF8ED"/>
<path d="M67.5073 126.16H61.9565V131.71H67.5073V126.16Z" fill="#FFF8ED"/>
<path d="M73.0581 126.16H67.5073V131.71H73.0581V126.16Z" fill="#FFF8ED"/>
<path d="M78.6088 126.16H73.0581V131.71H78.6088V126.16Z" fill="#FFF8ED"/>
<path d="M106.363 126.16H100.812V131.71H106.363V126.16Z" fill="#FFF8ED"/>
<path d="M111.914 126.16H106.363V131.71H111.914V126.16Z" fill="#FFF8ED"/>
<path d="M117.464 126.16H111.914V131.71H117.464V126.16Z" fill="#FFF8ED"/>
<path d="M134.116 126.16H128.565V131.71H134.116V126.16Z" fill="#FFF8ED"/>
<path d="M145.218 126.16H139.667V131.71H145.218V126.16Z" fill="#FFF8ED"/>
<path d="M23.1015 131.71H17.5508V137.261H23.1015V131.71Z" fill="#FFF8ED"/>
<path d="M28.6523 131.71H23.1016V137.261H28.6523V131.71Z" fill="#FFF8ED"/>
<path d="M34.2031 131.71H28.6523V137.261H34.2031V131.71Z" fill="#FFF8ED"/>
<path d="M39.7539 131.71H34.2031V137.261H39.7539V131.71Z" fill="#FFF8ED"/>
<path d="M56.4062 131.71H50.8555V137.261H56.4062V131.71Z" fill="#FFF8ED"/>
<path d="M61.9565 131.71H56.4058V137.261H61.9565V131.71Z" fill="#FFF8ED"/>
<path d="M73.0581 131.71H67.5073V137.261H73.0581V131.71Z" fill="#FFF8ED"/>
<path d="M84.1596 131.71H78.6089V137.261H84.1596V131.71Z" fill="#FFF8ED"/>
<path d="M95.2612 131.71H89.7104V137.261H95.2612V131.71Z" fill="#FFF8ED"/>
<path d="M106.363 131.71H100.812V137.261H106.363V131.71Z" fill="#FFF8ED"/>
<path d="M117.464 131.71H111.914V137.261H117.464V131.71Z" fill="#FFF8ED"/>
<path d="M128.565 131.71H123.015V137.261H128.565V131.71Z" fill="#FFF8ED"/>
<path d="M134.116 131.71H128.565V137.261H134.116V131.71Z" fill="#FFF8ED"/>
<path d="M150.769 131.71H145.218V137.261H150.769V131.71Z" fill="#FFF8ED"/>
<path d="M28.6523 137.261H23.1016V142.812H28.6523V137.261Z" fill="#FFF8ED"/>
<path d="M39.7539 137.261H34.2031V142.812H39.7539V137.261Z" fill="#FFF8ED"/>
<path d="M61.9565 137.261H56.4058V142.812H61.9565V137.261Z" fill="#FFF8ED"/>
<path d="M73.0581 137.261H67.5073V142.812H73.0581V137.261Z" fill="#FFF8ED"/>
<path d="M100.812 137.261H95.2612V142.812H100.812V137.261Z" fill="#FFF8ED"/>
<path d="M106.363 137.261H100.812V142.812H106.363V137.261Z" fill="#FFF8ED"/>
<path d="M134.116 137.261H128.565V142.812H134.116V137.261Z" fill="#FFF8ED"/>
<path d="M139.667 137.261H134.116V142.812H139.667V137.261Z" fill="#FFF8ED"/>
<path d="M150.769 137.261H145.218V142.812H150.769V137.261Z" fill="#FFF8ED"/>
<path d="M23.1015 142.812H17.5508V148.363H23.1015V142.812Z" fill="#FFF8ED"/>
<path d="M34.2031 142.812H28.6523V148.363H34.2031V142.812Z" fill="#FFF8ED"/>
<path d="M56.4062 142.812H50.8555V148.363H56.4062V142.812Z" fill="#FFF8ED"/>
<path d="M61.9565 142.812H56.4058V148.363H61.9565V142.812Z" fill="#FFF8ED"/>
<path d="M67.5073 142.812H61.9565V148.363H67.5073V142.812Z" fill="#FFF8ED"/>
<path d="M78.6088 142.812H73.0581V148.363H78.6088V142.812Z" fill="#FFF8ED"/>
<path d="M84.1596 142.812H78.6089V148.363H84.1596V142.812Z" fill="#FFF8ED"/>
<path d="M89.7104 142.812H84.1597V148.363H89.7104V142.812Z" fill="#FFF8ED"/>
<path d="M106.363 142.812H100.812V148.363H106.363V142.812Z" fill="#FFF8ED"/>
<path d="M117.464 142.812H111.914V148.363H117.464V142.812Z" fill="#FFF8ED"/>
<path d="M123.015 142.812H117.464V148.363H123.015V142.812Z" fill="#FFF8ED"/>
<path d="M128.565 142.812H123.015V148.363H128.565V142.812Z" fill="#FFF8ED"/>
<path d="M134.116 142.812H128.565V148.363H134.116V142.812Z" fill="#FFF8ED"/>
<path d="M145.218 142.812H139.667V148.363H145.218V142.812Z" fill="#FFF8ED"/>
<path d="M156.319 142.812H150.769V148.363H156.319V142.812Z" fill="#FFF8ED"/>
<path d="M34.2031 148.363H28.6523V153.914H34.2031V148.363Z" fill="#FFF8ED"/>
<path d="M45.3046 148.363H39.7539V153.914H45.3046V148.363Z" fill="#FFF8ED"/>
<path d="M50.8554 148.363H45.3047V153.914H50.8554V148.363Z" fill="#FFF8ED"/>
<path d="M73.0581 148.363H67.5073V153.914H73.0581V148.363Z" fill="#FFF8ED"/>
<path d="M78.6088 148.363H73.0581V153.914H78.6088V148.363Z" fill="#FFF8ED"/>
<path d="M84.1596 148.363H78.6089V153.914H84.1596V148.363Z" fill="#FFF8ED"/>
<path d="M95.2612 148.363H89.7104V153.914H95.2612V148.363Z" fill="#FFF8ED"/>
<path d="M150.769 148.363H145.218V153.914H150.769V148.363Z" fill="#FFF8ED"/>
<path d="M156.319 148.363H150.769V153.914H156.319V148.363Z" fill="#FFF8ED"/>
<path d="M73.0581 153.914H67.5073V159.464H73.0581V153.914Z" fill="#FFF8ED"/>
<path d="M78.6088 153.914H73.0581V159.464H78.6088V153.914Z" fill="#FFF8ED"/>
<path d="M100.812 153.914H95.2612V159.464H100.812V153.914Z" fill="#FFF8ED"/>
<path d="M150.769 153.914H145.218V159.464H150.769V153.914Z" fill="#FFF8ED"/>
<path d="M78.6088 159.464H73.0581V165.015H78.6088V159.464Z" fill="#FFF8ED"/>
<path d="M84.1596 159.464H78.6089V165.015H84.1596V159.464Z" fill="#FFF8ED"/>
<path d="M89.7104 159.464H84.1597V165.015H89.7104V159.464Z" fill="#FFF8ED"/>
<path d="M95.2612 159.464H89.7104V165.015H95.2612V159.464Z" fill="#FFF8ED"/>
<path d="M139.667 159.464H134.116V165.015H139.667V159.464Z" fill="#FFF8ED"/>
<path d="M145.218 159.464H139.667V165.015H145.218V159.464Z" fill="#FFF8ED"/>
<path d="M67.5073 165.015H61.9565V170.565H67.5073V165.015Z" fill="#FFF8ED"/>
<path d="M73.0581 165.015H67.5073V170.565H73.0581V165.015Z" fill="#FFF8ED"/>
<path d="M78.6088 165.015H73.0581V170.565H78.6088V165.015Z" fill="#FFF8ED"/>
<path d="M84.1596 165.015H78.6089V170.565H84.1596V165.015Z" fill="#FFF8ED"/>
<path d="M95.2612 165.015H89.7104V170.565H95.2612V165.015Z" fill="#FFF8ED"/>
<path d="M100.812 165.015H95.2612V170.565H100.812V165.015Z" fill="#FFF8ED"/>
<path d="M150.769 165.015H145.218V170.565H150.769V165.015Z" fill="#FFF8ED"/>
<path d="M156.319 165.015H150.769V170.565H156.319V165.015Z" fill="#FFF8ED"/>
<path d="M67.5073 170.565H61.9565V176.116H67.5073V170.565Z" fill="#FFF8ED"/>
<path d="M73.0581 170.565H67.5073V176.116H73.0581V170.565Z" fill="#FFF8ED"/>
<path d="M78.6088 170.565H73.0581V176.116H78.6088V170.565Z" fill="#FFF8ED"/>
<path d="M84.1596 170.565H78.6089V176.116H84.1596V170.565Z" fill="#FFF8ED"/>
<path d="M100.812 170.565H95.2612V176.116H100.812V170.565Z" fill="#FFF8ED"/>
<path d="M106.363 170.565H100.812V176.116H106.363V170.565Z" fill="#FFF8ED"/>
<path d="M139.667 170.565H134.116V176.116H139.667V170.565Z" fill="#FFF8ED"/>
<path d="M145.218 170.565H139.667V176.116H145.218V170.565Z" fill="#FFF8ED"/>
<path d="M150.769 170.565H145.218V176.116H150.769V170.565Z" fill="#FFF8ED"/>
<path d="M156.319 170.565H150.769V176.116H156.319V170.565Z" fill="#FFF8ED"/>
<path d="M73.0581 176.116H67.5073V181.667H73.0581V176.116Z" fill="#FFF8ED"/>
<path d="M78.6088 176.116H73.0581V181.667H78.6088V176.116Z" fill="#FFF8ED"/>
<path d="M84.1596 176.116H78.6089V181.667H84.1596V176.116Z" fill="#FFF8ED"/>
<path d="M89.7104 176.116H84.1597V181.667H89.7104V176.116Z" fill="#FFF8ED"/>
<path d="M111.914 176.116H106.363V181.667H111.914V176.116Z" fill="#FFF8ED"/>
<path d="M123.015 176.116H117.464V181.667H123.015V176.116Z" fill="#FFF8ED"/>
<path d="M128.565 176.116H123.015V181.667H128.565V176.116Z" fill="#FFF8ED"/>
<path d="M139.667 176.116H134.116V181.667H139.667V176.116Z" fill="#FFF8ED"/>
<path d="M150.769 176.116H145.218V181.667H150.769V176.116Z" fill="#FFF8ED"/>
<path d="M156.319 176.116H150.769V181.667H156.319V176.116Z" fill="#FFF8ED"/>
<path d="M67.5073 181.667H61.9565V187.218H67.5073V181.667Z" fill="#FFF8ED"/>
<path d="M84.1596 181.667H78.6089V187.218H84.1596V181.667Z" fill="#FFF8ED"/>
<path d="M106.363 181.667H100.812V187.218H106.363V181.667Z" fill="#FFF8ED"/>
<path d="M123.015 181.667H117.464V187.218H123.015V181.667Z" fill="#FFF8ED"/>
<path d="M150.769 181.667H145.218V187.218H150.769V181.667Z" fill="#FFF8ED"/>
<path d="M73.0581 187.218H67.5073V192.769H73.0581V187.218Z" fill="#FFF8ED"/>
<path d="M78.6088 187.218H73.0581V192.769H78.6088V187.218Z" fill="#FFF8ED"/>
<path d="M84.1596 187.218H78.6089V192.769H84.1596V187.218Z" fill="#FFF8ED"/>
<path d="M89.7104 187.218H84.1597V192.769H89.7104V187.218Z" fill="#FFF8ED"/>
<path d="M106.363 187.218H100.812V192.769H106.363V187.218Z" fill="#FFF8ED"/>
<path d="M123.015 187.218H117.464V192.769H123.015V187.218Z" fill="#FFF8ED"/>
<path d="M128.565 187.218H123.015V192.769H128.565V187.218Z" fill="#FFF8ED"/>
<path d="M134.116 187.218H128.565V192.769H134.116V187.218Z" fill="#FFF8ED"/>
<path d="M145.218 187.218H139.667V192.769H145.218V187.218Z" fill="#FFF8ED"/>
<path d="M150.769 187.218H145.218V192.769H150.769V187.218Z" fill="#FFF8ED"/>
<path d="M156.319 187.218H150.769V192.769H156.319V187.218Z" fill="#FFF8ED"/>
<path d="M73.0581 192.769H67.5073V198.319H73.0581V192.769Z" fill="#FFF8ED"/>
<path d="M84.1596 192.769H78.6089V198.319H84.1596V192.769Z" fill="#FFF8ED"/>
<path d="M89.7104 192.769H84.1597V198.319H89.7104V192.769Z" fill="#FFF8ED"/>
<path d="M106.363 192.769H100.812V198.319H106.363V192.769Z" fill="#FFF8ED"/>
<path d="M123.015 192.769H117.464V198.319H123.015V192.769Z" fill="#FFF8ED"/>
<path d="M134.116 192.769H128.565V198.319H134.116V192.769Z" fill="#FFF8ED"/>
<path d="M139.667 192.769H134.116V198.319H139.667V192.769Z" fill="#FFF8ED"/>
<path d="M145.218 192.769H139.667V198.319H145.218V192.769Z" fill="#FFF8ED"/>
<path fill-rule="evenodd" clip-rule="evenodd" d="M12 54H61.9567V103.957H12V54ZM17.5507 59.5507H56.4059V98.4059H17.5507V59.5507Z" fill="#FFF8ED"/>
<path fill-rule="evenodd" clip-rule="evenodd" d="M17.5508 59.5508H56.406V98.406H17.5508V59.5508ZM23.1015 65.1015H50.8552V92.8552H23.1015V65.1015Z" fill="black"/>
<path fill-rule="evenodd" clip-rule="evenodd" d="M23.1016 65.1016H50.8553V92.8553H23.1016V65.1016ZM28.6523 70.6523H45.3045V87.3045H28.6523V70.6523Z" fill="#FFF8ED"/>
<path d="M45.3046 70.6523H28.6523V87.3046H45.3046V70.6523Z" fill="black"/>
<path fill-rule="evenodd" clip-rule="evenodd" d="M111.913 54H161.87V103.957H111.913V54ZM117.464 59.5507H156.319V98.4059H117.464V59.5507Z" fill="#FFF8ED"/>
<path fill-rule="evenodd" clip-rule="evenodd" d="M117.464 59.5508H156.319V98.406H117.464V59.5508ZM123.015 65.1015H150.768V92.8552H123.015V65.1015Z" fill="black"/>
<path fill-rule="evenodd" clip-rule="evenodd" d="M123.015 65.1016H150.768V92.8553H123.015V65.1016ZM128.565 70.6523H145.218V87.3045H128.565V70.6523Z" fill="#FFF8ED"/>
<path d="M145.218 70.6523H128.565V87.3046H145.218V70.6523Z" fill="black"/>
<path fill-rule="evenodd" clip-rule="evenodd" d="M12 153.913H61.9567V203.87H12V153.913ZM17.5507 159.464H56.4059V198.319H17.5507V159.464Z" fill="#FFF8ED"/>
<path fill-rule="evenodd" clip-rule="evenodd" d="M17.5508 159.464H56.406V198.319H17.5508V159.464ZM23.1015 165.015H50.8552V192.768H23.1015V165.015Z" fill="black"/>
<path fill-rule="evenodd" clip-rule="evenodd" d="M23.1016 165.015H50.8553V192.768H23.1016V165.015ZM28.6523 170.565H45.3045V187.218H28.6523V170.565Z" fill="#FFF8ED"/>
<path d="M45.3046 170.565H28.6523V187.218H45.3046V170.565Z" fill="black"/>
<path fill-rule="evenodd" clip-rule="evenodd" d="M106.363 148.363H134.116V176.116H106.363V148.363ZM111.914 153.914H128.566V170.566H111.914V153.914Z" fill="black"/>
<path fill-rule="evenodd" clip-rule="evenodd" d="M111.914 153.914H128.566V170.566H111.914V153.914ZM117.464 159.464H123.015V165.015H117.464V159.464Z" fill="#FFF8ED"/>
<path d="M123.015 159.464H117.464V165.015H123.015V159.464Z" fill="black"/>
</g>
<path d="M13.2804 14.2414V28H18.6446V24.6422H23.4356L26.0256 28H31.7379L28.7384 24.1406C29.6393 23.7209 30.3661 23.0862 30.9087 22.257C31.4615 21.4176 31.7379 20.4758 31.7379 19.4418C31.7788 16.5959 29.3731 14.2107 26.5374 14.2414H13.2804ZM25.1861 18.2645C25.8413 18.2645 26.3634 18.7866 26.3634 19.4418C26.3634 19.7592 26.2508 20.0356 26.0153 20.271C25.7901 20.4962 25.5137 20.6088 25.1861 20.6088H18.6446V18.2645H25.1861ZM33.4065 28.0102H49.5094V24.4784H38.7707V22.7177H49.5094V19.5339H38.7707V17.7732H49.5094V14.2516H33.4065V28.0102ZM49.9291 19.104V23.1272H65.0288V19.104H49.9291ZM26.5477 41.2877C26.0563 42.639 24.5207 42.9666 22.6781 42.9666C20.4873 42.9359 18.6242 42.5264 18.6549 40.2845V39.9467C18.6242 37.6843 20.4873 37.2953 22.6781 37.2645C24.5207 37.2645 26.046 37.5819 26.5477 38.9332H32.045C31.7071 34.2958 27.6328 32.9036 22.6781 32.8933C17.5186 32.9138 13.26 34.4084 13.2804 39.6088V40.6121C13.26 45.8227 17.5186 47.3173 22.6781 47.3276C27.6328 47.3276 31.7071 45.9353 32.045 41.2877H26.5477ZM33.6522 33.2414V47H39.0164V43.6422H43.8074L46.3973 47H52.1096L49.1102 43.1406C50.011 42.7209 50.7379 42.0862 51.2804 41.257C51.8332 40.4176 52.1096 39.4758 52.1096 38.4418C52.1506 35.5959 49.7449 33.2107 46.9092 33.2414H33.6522ZM45.5579 37.2645C46.2131 37.2645 46.7352 37.7866 46.7352 38.4418C46.7352 38.7592 46.6226 39.0356 46.3871 39.271C46.1619 39.4962 45.8855 39.6088 45.5579 39.6088H39.0164V37.2645H45.5579ZM66.9943 40.2845C67.025 42.5469 65.1619 42.9359 62.9712 42.9666C60.7702 42.9359 58.9173 42.5469 58.9378 40.2845V33.2311H53.5735V40.6223C53.5531 45.8227 57.8117 47.3173 62.9712 47.3276C68.1306 47.3173 72.3893 45.8227 72.3688 40.6223V33.2311H66.9943V40.2845ZM85.892 47.0102V37.6126H92.2696V33.2516H74.15V37.6126H80.5277V47.0102H85.892ZM94.0714 47.0102H110.174V43.4784H99.4356V41.7177H110.174V38.5339H99.4356V36.7732H110.174V33.2516H94.0714V47.0102Z" fill="black"/>
<defs>
<clipPath id="clip0_89_1801">
<rect width="149.87" height="149.87" fill="white" transform="translate(12 54)"/>
</clipPath>
</defs>
</svg>
