<svg xmlns="http://www.w3.org/2000/svg" xmlns:xlink="http://www.w3.org/1999/xlink" viewBox="0 0 3683.65 3137.63"><defs><style>.cls-1{fill:none;}.cls-2{clip-path:url(#clip-path);}.cls-3{fill:#FF5F01;}.cls-4{fill:url(#Dégradé_sans_nom_86);}</style><clipPath id="clip-path" transform="translate(820.86 596.78)"><rect class="cls-1" width="1920" height="1920.72"/></clipPath><radialGradient id="Dégradé_sans_nom_86" cx="1842.51" cy="1557.14" r="324.22" gradientUnits="userSpaceOnUse"><stop offset="0" stop-color="#fff8ee"/><stop offset="0.09" stop-color="#fff8ee" stop-opacity="0.95"/><stop offset="0.25" stop-color="#fff8ee" stop-opacity="0.82"/><stop offset="0.46" stop-color="#fff8ee" stop-opacity="0.62"/><stop offset="0.73" stop-color="#fff8ee" stop-opacity="0.33"/><stop offset="1" stop-color="#fff8ee" stop-opacity="0"/></radialGradient></defs><title> bg1</title><g id="Calque_2" data-name="Calque 2"><g id="Calque_1-2" data-name="Calque 1"><g class="cls-2"><path class="cls-3" d="M1024.76,959.59c185.31,138.05,381.54,261.26,590.5,360.36,193.77,91.9,396.72,161.65,604.51,214.2q138-34.89,276.38-68.62c-122-15.75-243.48-35.39-363.8-61.1C1739.22,1320.4,1368.55,1167.28,1024.76,959.59Z" transform="translate(820.86 596.78)"/><path class="cls-3" d="M1024.76,959.59c220.9,106.33,449.85,195.2,686.24,260.59,230.5,63.77,466.37,104.69,704.17,129q136-40.54,273-77.27c-138-4-275.88-11.57-413.33-24.56A4867.63,4867.63,0,0,1,1024.76,959.59Z" transform="translate(820.86 596.78)"/><path class="cls-3" d="M1024.76,959.59A6150.89,6150.89,0,0,0,2177.16,1162c125.59,9.86,251.44,16,377.37,19.47q128.05-41.7,257.92-77.34c-146.47,1.41-292.95.57-439.37-3.53C1920.52,1087.94,1470,1041.92,1024.76,959.59Z" transform="translate(820.86 596.78)"/><path class="cls-3" d="M1024.76,959.59q604,58.92,1211.26,68.31,197.63,3.19,395.3,1.94,114.58-41,231.47-74.86-228,3.74-455.93,6.27Q1715.83,968.66,1024.76,959.59Z" transform="translate(820.86 596.78)"/><path class="cls-3" d="M1024.76,959.59Q1632.35,917,2241.2,897.25q200.36-6.46,400.77-10.67,96.15-41.52,194.84-76.47-225.67,4.14-451.2,14.18A12836.77,12836.77,0,0,0,1024.76,959.59Z" transform="translate(820.86 596.78)"/><path class="cls-3" d="M1024.76,959.59c387.94-93.67,781.87-159,1179.49-193.64,127.15-11.08,254.54-19.14,382-24.93q73.8-45.64,150-87c-140,5.9-279.88,15-419.34,28.84C1876.75,726.45,1444.49,820,1024.76,959.59Z" transform="translate(820.86 596.78)"/><path class="cls-3" d="M1024.76,959.59c350.08-151.19,714.8-264.05,1090.9-328.33,116.68-19.94,234.06-35.37,351.81-47.43q49-54.54,99.54-107.72c-126.56,14.73-252.65,33.41-377.69,58C1780.37,614.47,1391.13,761.78,1024.76,959.59Z" transform="translate(820.86 596.78)"/><path class="cls-3" d="M1024.76,959.59c200.15-132.9,409.9-251.31,630.9-346C1860.76,525.67,2074,459.48,2291.74,411q23-68,46.13-135.91C2230.42,305,2124,338.42,2019.47,377.38,1655.85,512.9,1326.1,716.51,1024.76,959.59Z" transform="translate(820.86 596.78)"/><path class="cls-3" d="M1024.76,959.59c162.35-159.34,334.65-308.8,521.47-438.91,164.32-114.44,339.11-212.2,521.41-294.9q-3.88-83-7.66-166.08C1877.83,167.63,1704,288.3,1543,426,1354.22,587.51,1183.8,769,1024.76,959.59Z" transform="translate(820.86 596.78)"/><path class="cls-3" d="M1024.76,959.59c225.49-336.16,479.1-649.84,780.42-921.1q-30.3-95.85-59.71-192C1466.2,192.36,1231.5,566.42,1024.76,959.59Z" transform="translate(820.86 596.78)"/><path class="cls-3" d="M1024.76,959.59c145.67-373.08,305.78-740,490.32-1095.55q-54.86-103.83-108.48-208.31C1266.32,86.52,1140.74,521.66,1024.76,959.59Z" transform="translate(820.86 596.78)"/><path class="cls-3" d="M1024.76,959.59q88.37-620.7,183.38-1240.43-76.89-105.65-152.86-212C1048.05-8.61,1036.32,475.5,1024.76,959.59Z" transform="translate(820.86 596.78)"/><path class="cls-3" d="M1024.76,959.59C981.7,513,941.6,66.09,895.05-380.16q-96.15-100.59-192-201.49c86,391.52,162.76,785,244.41,1177.45Q985.35,777.86,1024.76,959.59Z" transform="translate(820.86 596.78)"/><path class="cls-3" d="M1024.76,959.59C867,503.39,731.59,40.05,586.33-420.16q-112.34-88.5-225-176.62c170.79,400.92,327.52,807.71,503,1206.67Q941.78,786,1024.76,959.59Z" transform="translate(820.86 596.78)"/><path class="cls-3" d="M1024.76,959.59Q932.47,812.92,846.83,662.25C650.21,317.81,474.57-38,292.54-390.18q-125-69.36-250.77-137.44C290-137.88,522.81,262,787.9,640.83Q901.76,803.55,1024.76,959.59Z" transform="translate(820.86 596.78)"/><path class="cls-3" d="M1024.76,959.59q-125.09-127-241.53-262.1C512.36,384.82,270.71,48.41,24.31-283.45q-133.65-43.49-268-84.62C73.64-12.58,378.46,355.4,721.35,687.13,819.09,781.67,920,872.92,1024.76,959.59Z" transform="translate(820.86 596.78)"/><path class="cls-3" d="M1024.76,959.59Q873.37,858,729.94,745.22C398.48,485.85,96.18,192-207.74-98.44q-137.56-11.73-275.38-20.13c376.63,296,746.33,602.85,1148.61,864.1C782.45,821.48,902.1,893.21,1024.76,959.59Z" transform="translate(820.86 596.78)"/><path class="cls-3" d="M1024.76,959.59q-171.48-73-337.7-157.49C312.83,612.5-40.77,385.77-393.48,159.51q-136.15,24-271.57,51.83c425.8,211.83,849.52,429.81,1292.16,605.07Q823.64,894.21,1024.76,959.59Z" transform="translate(820.86 596.78)"/><path class="cls-3" d="M1024.76,959.59Q840.1,917.46,657.52,866.92c-400-110.54-791.3-249.23-1181.45-390q-128.77,60.72-256,124.66c458.2,104.28,916.29,210.09,1379.32,291Q811.5,929.74,1024.76,959.59Z" transform="translate(820.86 596.78)"/><path class="cls-3" d="M1024.76,959.59q-191.19-10.15-382.21-23.07C230.42,908.68-181,871.38-592.18,832.57q-115.14,94.14-228.68,190.23C-349.42,1006.32,122,989,593.44,973.34Q809.1,966.2,1024.76,959.59Z" transform="translate(820.86 596.78)"/><path class="cls-3" d="M1024.76,959.59q-190,21.95-379.49,47.46c-414.39,55.73-827,123.63-1239.39,192.26q-95.85,120-190.83,240.78c460.21-135.83,919.79-274.8,1386.51-387Q812.28,1002.48,1024.76,959.59Z" transform="translate(820.86 596.78)"/><path class="cls-3" d="M1024.76,959.59Q841,1013.14,660,1075.28c-403.8,138.23-796.91,305.09-1189,473q-72.13,135.49-144.4,270.91c429.07-239.76,855.36-486.31,1302.32-691.85Q824.25,1037.51,1024.76,959.59Z" transform="translate(820.86 596.78)"/><path class="cls-3" d="M1024.76,959.59Q854.26,1043.4,689.4,1138C312,1353.63-44.15,1603.92-399.78,1853.18q-45.68,139.52-92,278.82c380.56-319.3,754.28-648.54,1159.55-936.78C784,1112.56,902.84,1033.61,1024.76,959.59Z" transform="translate(820.86 596.78)"/><path class="cls-3" d="M1024.76,959.59q-149.79,111.12-291.92,232C400.12,1473.23,94.67,1785.15-212.4,2094q-18.06,133.14-36.42,266.25c320.16-373.74,629.61-757.66,973.06-1110.7C821.33,1149.74,921.23,1052.71,1024.76,959.59Z" transform="translate(820.86 596.78)"/><path class="cls-3" d="M1024.76,959.59Q903,1093,788.78,1233C518.27,1562.87,273.17,1912.52,24.43,2258.78Q33.69,2377.52,44,2496.17c247.55-401.73,483.61-810.78,746.24-1203Q903.64,1123.69,1024.76,959.59Z" transform="translate(820.86 596.78)"/><path class="cls-3" d="M1024.76,959.59q-88.47,150.15-171.83,303.24C658.9,1618,481.56,1982,300.18,2343.71q35.44,99.08,73.53,197.14c166.13-408,323.91-819.46,495.59-1225.23Q945,1136.73,1024.76,959.59Z" transform="translate(820.86 596.78)"/><path class="cls-3" d="M1024.76,959.59c-148.49,461.56-283,927.4-421.44,1392q60.13,76.44,123.73,150c75.89-391.51,149.3-783.49,225.45-1174.95Q988.21,1143,1024.76,959.59Z" transform="translate(820.86 596.78)"/><path class="cls-3" d="M1024.76,959.59q-52.38,665.29-102.88,1330.73,83,52.17,168.72,99.74C1063,1913.52,1043.62,1436.54,1024.76,959.59Z" transform="translate(820.86 596.78)"/><path class="cls-3" d="M1024.76,959.59c65.32,405.34,135.71,809.88,219,1211.94q103.08,27.39,207.36,49.79C1284.77,1809,1146.67,1387,1024.76,959.59Z" transform="translate(820.86 596.78)"/><path class="cls-3" d="M1024.76,959.59c151.79,363,324.42,716,532.42,1050.28,113.67-8.73,227.14-19.62,340.48-31.93-157.05-133.68-306-276-441.67-431.56C1296.16,1363.13,1154.93,1164.75,1024.76,959.59Z" transform="translate(820.86 596.78)"/><path class="cls-3" d="M1024.76,959.59c146.18,162.9,303,316.49,475.25,451.8,151.78,119.22,314.74,222.58,485.53,312.31q134.58-23.76,268.92-48.8c-215.74-69.82-425.49-156.28-622.82-268.47C1412.45,1281.8,1211.5,1128.57,1024.76,959.59Z" transform="translate(820.86 596.78)"/><circle class="cls-4" cx="1842.51" cy="1557.14" r="324.22"/></g></g></g></svg>