<svg width="4314" height="106" viewBox="0 0 4314 106" fill="none" xmlns="http://www.w3.org/2000/svg">
<g clip-path="url(#clip0_31_1159)">
<path fill-rule="evenodd" clip-rule="evenodd" d="M41.4997 66.8464C18.5801 66.8464 0.000114441 51.8823 0.000114441 33.4232C0.000114441 14.9641 18.5801 0 41.4997 0C52.519 0 62.5353 3.45898 69.9658 9.10233C74.8152 12.7854 83.1832 12.7854 88.0326 9.10233C95.4631 3.45898 105.479 0 116.499 0C127.389 0 137.3 3.37856 144.703 8.90528C149.981 12.8453 160.016 12.8453 165.294 8.90528C172.697 3.37856 182.607 0 193.498 0C204.489 0 214.482 3.44133 221.907 9.05914C226.951 12.8757 236.044 12.8757 241.088 9.05914C248.513 3.44133 258.506 0 269.497 0C280.488 0 290.482 3.44133 297.906 9.05914C302.951 12.8757 312.043 12.8757 317.087 9.05914C324.512 3.44133 334.505 0 345.497 0C356.387 0 366.298 3.3786 373.701 8.90536C378.979 12.8453 389.013 12.8453 394.291 8.90536C401.694 3.3786 411.605 0 422.496 0C433.386 0 443.297 3.3786 450.7 8.90536C455.978 12.8453 466.012 12.8453 471.29 8.90536C478.693 3.3786 488.604 0 499.495 0C510.385 0 520.296 3.37858 527.699 8.90531C532.977 12.8453 543.011 12.8453 548.289 8.90531C555.692 3.37857 565.603 0 576.494 0C587.384 0 597.295 3.37858 604.698 8.90531C609.976 12.8453 620.01 12.8453 625.288 8.90531C632.691 3.37857 642.602 0 653.493 0C664.383 0 674.294 3.37858 681.697 8.90531C686.975 12.8453 697.009 12.8453 702.287 8.90531C709.69 3.37857 719.601 0 730.492 0C741.382 0 751.293 3.37858 758.696 8.90531C763.974 12.8453 774.009 12.8453 779.286 8.90531C786.689 3.37857 796.6 0 807.491 0C818.381 0 828.292 3.37858 835.695 8.90531C840.973 12.8453 851.008 12.8453 856.285 8.90531C863.688 3.37857 873.599 0 884.49 0C895.38 0 905.291 3.37858 912.694 8.90531C917.972 12.8453 928.007 12.8453 933.284 8.90531C940.687 3.37857 950.598 0 961.489 0C972.379 0 982.29 3.37858 989.693 8.90531C994.971 12.8453 1005.01 12.8453 1010.28 8.9053C1017.69 3.37857 1027.6 0 1038.49 0C1049.38 0 1059.29 3.37858 1066.69 8.90531C1071.97 12.8453 1082 12.8453 1087.28 8.90529C1094.69 3.37857 1104.6 0 1115.49 0C1126.38 0 1136.29 3.37858 1143.69 8.90531C1148.97 12.8453 1159 12.8453 1164.28 8.90529C1171.68 3.37857 1181.6 0 1192.49 0C1203.38 0 1213.29 3.37863 1220.69 8.90545C1225.97 12.8454 1236 12.8454 1241.28 8.90543C1248.68 3.37862 1258.59 0 1269.48 0C1280.38 0 1290.29 3.37858 1297.69 8.90531C1302.97 12.8453 1313 12.8453 1318.28 8.90529C1325.68 3.37857 1335.59 0 1346.48 0C1357.37 0 1367.28 3.37858 1374.69 8.90531C1379.97 12.8453 1390 12.8453 1395.28 8.90529C1402.68 3.37857 1412.59 0 1423.48 0C1434.37 0 1444.28 3.37858 1451.69 8.90531C1456.96 12.8453 1467 12.8453 1472.28 8.90529C1479.68 3.37857 1489.59 0 1500.48 0C1511.37 0 1521.28 3.37858 1528.69 8.90531C1533.96 12.8453 1544 12.8453 1549.28 8.90529C1556.68 3.37857 1566.59 0 1577.48 0C1588.37 0 1598.28 3.37858 1605.69 8.90531C1610.96 12.8453 1621 12.8453 1626.28 8.90529C1633.68 3.37857 1643.59 0 1654.48 0C1665.37 0 1675.28 3.37858 1682.68 8.90531C1687.96 12.8453 1698 12.8453 1703.27 8.90529C1710.68 3.37857 1720.59 0 1731.48 0C1742.37 0 1752.28 3.37858 1759.68 8.90531C1764.96 12.8453 1775 12.8453 1780.27 8.90529C1787.68 3.37857 1797.59 0 1808.48 0C1819.37 0 1829.28 3.37858 1836.68 8.90531C1841.96 12.8453 1851.99 12.8453 1857.27 8.90529C1864.68 3.37857 1874.59 0 1885.48 0C1896.37 0 1906.28 3.37858 1913.68 8.90531C1918.96 12.8453 1928.99 12.8453 1934.27 8.90529C1941.67 3.37857 1951.59 0 1962.48 0C1973.37 0 1983.28 3.37858 1990.68 8.90531C1995.96 12.8453 2005.99 12.8453 2011.27 8.90529C2018.67 3.37857 2028.58 0 2039.47 0C2050.37 0 2060.28 3.37866 2067.68 8.90551C2072.96 12.8455 2082.99 12.8454 2088.27 8.90548C2095.67 3.37865 2105.58 0 2116.47 0C2127.36 0 2137.28 3.37861 2144.68 8.9054C2149.96 12.8453 2159.99 12.8453 2165.27 8.90544C2172.67 3.37863 2182.58 0 2193.47 0C2204.36 0 2214.27 3.37859 2221.68 8.90535C2226.95 12.8453 2236.99 12.8454 2242.27 8.90544C2249.67 3.37867 2259.58 7.62939e-05 2270.47 7.62939e-05C2281.36 7.62939e-05 2291.27 3.37868 2298.68 8.90546C2303.95 12.8454 2313.99 12.8454 2319.27 8.90546C2326.67 3.37864 2336.58 0 2347.47 0C2358.36 0 2368.27 3.37865 2375.68 8.9055C2380.95 12.8455 2390.99 12.8454 2396.27 8.90548C2403.67 3.37864 2413.58 0 2424.47 0C2435.36 0 2445.27 3.37865 2452.67 8.9055C2457.95 12.8455 2467.99 12.8454 2473.26 8.90548C2480.67 3.37864 2490.58 0 2501.47 0C2512.36 0 2522.27 3.37865 2529.67 8.9055C2534.95 12.8455 2544.99 12.8454 2550.26 8.90548C2557.67 3.37864 2567.58 0 2578.47 0C2589.36 0 2599.27 3.37865 2606.67 8.9055C2611.95 12.8455 2621.98 12.8454 2627.26 8.90548C2634.67 3.37864 2644.58 0 2655.47 0C2666.36 0 2676.27 3.37865 2683.67 8.9055C2688.95 12.8455 2698.98 12.8454 2704.26 8.90548C2711.66 3.37864 2721.58 0 2732.47 0C2743.36 0 2753.27 3.37865 2760.67 8.9055C2765.95 12.8455 2775.98 12.8454 2781.26 8.90548C2788.66 3.37864 2798.57 0 2809.46 0C2820.36 0 2830.27 3.37865 2837.67 8.9055C2842.95 12.8455 2852.98 12.8454 2858.26 8.90548C2865.66 3.37864 2875.57 0 2886.46 0C2897.35 0 2907.27 3.37865 2914.67 8.9055C2919.95 12.8455 2929.98 12.8454 2935.26 8.90548C2942.66 3.37864 2952.57 0 2963.46 0C2974.35 0 2984.26 3.37865 2991.67 8.9055C2996.95 12.8455 3006.98 12.8454 3012.26 8.90548C3019.66 3.37864 3029.57 0 3040.46 0C3051.35 0 3061.26 3.37865 3068.67 8.9055C3073.94 12.8455 3083.98 12.8454 3089.26 8.90548C3096.66 3.37864 3106.57 0 3117.46 0C3128.35 0 3138.26 3.37865 3145.67 8.9055C3150.94 12.8455 3160.98 12.8454 3166.26 8.90548C3173.66 3.37864 3183.57 0 3194.46 0C3205.35 0 3215.26 3.37865 3222.66 8.9055C3227.94 12.8455 3237.98 12.8454 3243.25 8.90548C3250.66 3.37864 3260.57 0 3271.46 0C3282.35 0 3292.26 3.37865 3299.66 8.9055C3304.94 12.8455 3314.98 12.8454 3320.25 8.90548C3327.66 3.37864 3337.57 0 3348.46 0C3359.35 0 3369.26 3.37865 3376.66 8.9055C3381.94 12.8455 3391.97 12.8454 3397.25 8.90548C3404.66 3.37864 3414.57 0 3425.46 0C3436.35 0 3446.26 3.37865 3453.66 8.9055C3458.94 12.8455 3468.97 12.8454 3474.25 8.90548C3481.65 3.37864 3491.57 0 3502.46 0C3513.35 0 3523.26 3.37865 3530.66 8.9055C3535.94 12.8455 3545.97 12.8454 3551.25 8.90548C3558.65 3.37864 3568.56 0 3579.46 0C3590.35 0 3600.26 3.37865 3607.66 8.9055C3612.94 12.8455 3622.97 12.8454 3628.25 8.90548C3635.65 3.37864 3645.56 0 3656.45 0C3667.34 0 3677.26 3.37865 3684.66 8.9055C3689.94 12.8455 3699.97 12.8454 3705.25 8.90548C3712.65 3.37864 3722.56 0 3733.45 0C3744.34 0 3754.25 3.37865 3761.66 8.9055C3766.94 12.8455 3776.97 12.8454 3782.25 8.90548C3789.65 3.37864 3799.56 0 3810.45 0C3821.34 0 3831.25 3.37865 3838.66 8.9055C3843.93 12.8455 3853.97 12.8454 3859.25 8.90548C3866.65 3.37864 3876.56 0 3887.45 0C3898.34 0 3908.25 3.37865 3915.66 8.9055C3920.93 12.8455 3930.97 12.8454 3936.25 8.90548C3943.65 3.37864 3953.56 0 3964.45 0C3975.34 0 3985.25 3.37865 3992.65 8.9055C3997.93 12.8455 4007.97 12.8454 4013.24 8.90548C4020.65 3.37864 4030.56 0 4041.45 0C4052.34 0 4062.25 3.37865 4069.65 8.9055C4074.93 12.8455 4084.97 12.8455 4090.24 8.90551C4097.65 3.37866 4107.56 0 4118.45 0C4129.34 0 4139.25 3.37851 4146.65 8.90516C4151.93 12.8451 4161.97 12.8451 4167.24 8.90516C4174.65 3.37851 4184.56 0 4195.45 0C4206.34 0 4216.25 3.37851 4223.65 8.90516C4228.93 12.8451 4238.96 12.8451 4244.24 8.90516C4251.65 3.37851 4261.56 0 4272.45 0C4295.37 0 4313.95 14.9641 4313.95 33.4232C4313.95 51.8823 4295.37 66.8464 4272.45 66.8464C4261.56 66.8464 4251.65 63.4678 4244.24 57.9412C4238.96 54.0012 4228.93 54.0012 4223.65 57.9412C4216.25 63.4678 4206.34 66.8464 4195.45 66.8464C4184.56 66.8464 4174.65 63.4678 4167.24 57.9412C4161.97 54.0012 4151.93 54.0012 4146.65 57.9412C4139.25 63.4678 4129.34 66.8464 4118.45 66.8464C4107.56 66.8464 4097.65 63.4677 4090.24 57.9409C4084.97 54.0009 4074.93 54.0009 4069.65 57.9409C4062.25 63.4677 4052.34 66.8464 4041.45 66.8464C4030.56 66.8464 4020.65 63.4677 4013.24 57.9409C4007.97 54.0009 3997.93 54.0009 3992.65 57.9409C3985.25 63.4677 3975.34 66.8464 3964.45 66.8464C3953.56 66.8464 3943.65 63.4677 3936.25 57.9409C3930.97 54.0009 3920.93 54.0009 3915.66 57.9409C3908.25 63.4677 3898.34 66.8464 3887.45 66.8464C3876.56 66.8464 3866.65 63.4677 3859.25 57.9409C3853.97 54.0009 3843.93 54.0009 3838.66 57.9409C3831.25 63.4677 3821.34 66.8464 3810.45 66.8464C3799.56 66.8464 3789.65 63.4677 3782.25 57.9409C3776.97 54.0009 3766.94 54.0009 3761.66 57.9409C3754.25 63.4677 3744.34 66.8464 3733.45 66.8464C3722.56 66.8464 3712.65 63.4677 3705.25 57.9409C3699.97 54.0009 3689.94 54.0009 3684.66 57.9409C3677.26 63.4677 3667.34 66.8464 3656.45 66.8464C3645.56 66.8464 3635.65 63.4677 3628.25 57.9409C3622.97 54.0009 3612.94 54.0009 3607.66 57.9409C3600.26 63.4677 3590.35 66.8464 3579.46 66.8464C3568.56 66.8464 3558.65 63.4677 3551.25 57.9409C3545.97 54.0009 3535.94 54.0009 3530.66 57.9409C3523.26 63.4677 3513.35 66.8464 3502.46 66.8464C3491.57 66.8464 3481.65 63.4677 3474.25 57.9409C3468.97 54.0009 3458.94 54.0009 3453.66 57.9409C3446.26 63.4677 3436.35 66.8464 3425.46 66.8464C3414.57 66.8464 3404.66 63.4677 3397.25 57.9409C3391.97 54.0009 3381.94 54.0009 3376.66 57.9409C3369.26 63.4677 3359.35 66.8464 3348.46 66.8464C3337.57 66.8464 3327.66 63.4677 3320.25 57.9409C3314.98 54.0009 3304.94 54.0009 3299.66 57.9409C3292.26 63.4677 3282.35 66.8464 3271.46 66.8464C3260.57 66.8464 3250.66 63.4677 3243.25 57.9409C3237.98 54.0009 3227.94 54.0009 3222.66 57.9409C3215.26 63.4677 3205.35 66.8464 3194.46 66.8464C3183.57 66.8464 3173.66 63.4677 3166.26 57.9409C3160.98 54.0009 3150.94 54.0009 3145.67 57.9409C3138.26 63.4677 3128.35 66.8464 3117.46 66.8464C3106.57 66.8464 3096.66 63.4677 3089.26 57.9409C3083.98 54.0009 3073.94 54.0009 3068.67 57.9409C3061.26 63.4677 3051.35 66.8464 3040.46 66.8464C3029.57 66.8464 3019.66 63.4677 3012.26 57.9409C3006.98 54.0009 2996.95 54.0009 2991.67 57.9409C2984.26 63.4677 2974.35 66.8464 2963.46 66.8464C2952.57 66.8464 2942.66 63.4677 2935.26 57.9409C2929.98 54.0009 2919.95 54.0009 2914.67 57.9409C2907.27 63.4677 2897.35 66.8464 2886.46 66.8464C2875.57 66.8464 2865.66 63.4677 2858.26 57.9409C2852.98 54.0009 2842.95 54.0009 2837.67 57.9409C2830.27 63.4677 2820.36 66.8464 2809.46 66.8464C2798.57 66.8464 2788.66 63.4677 2781.26 57.9409C2775.98 54.0009 2765.95 54.0009 2760.67 57.9409C2753.27 63.4677 2743.36 66.8464 2732.47 66.8464C2721.58 66.8464 2711.66 63.4677 2704.26 57.9409C2698.98 54.0009 2688.95 54.0009 2683.67 57.9409C2676.27 63.4677 2666.36 66.8464 2655.47 66.8464C2644.58 66.8464 2634.67 63.4677 2627.26 57.9409C2621.98 54.0009 2611.95 54.0009 2606.67 57.9409C2599.27 63.4677 2589.36 66.8464 2578.47 66.8464C2567.58 66.8464 2557.67 63.4677 2550.26 57.9409C2544.99 54.0009 2534.95 54.0009 2529.67 57.9409C2522.27 63.4677 2512.36 66.8464 2501.47 66.8464C2490.58 66.8464 2480.67 63.4677 2473.26 57.9409C2467.99 54.0009 2457.95 54.0009 2452.67 57.9409C2445.27 63.4677 2435.36 66.8464 2424.47 66.8464C2413.58 66.8464 2403.67 63.4677 2396.27 57.9409C2390.99 54.0009 2380.95 54.0009 2375.68 57.9409C2368.27 63.4677 2358.36 66.8464 2347.47 66.8464C2336.58 66.8464 2326.67 63.4677 2319.27 57.9409C2313.99 54.001 2303.95 54.0011 2298.68 57.941C2291.27 63.4678 2281.36 66.8464 2270.47 66.8464C2259.58 66.8464 2249.67 63.4678 2242.27 57.9411C2236.99 54.0011 2226.95 54.001 2221.68 57.941C2214.27 63.4678 2204.36 66.8464 2193.47 66.8464C2182.58 66.8464 2172.67 63.4677 2165.27 57.9409C2159.99 54.001 2149.96 54.001 2144.68 57.941C2137.28 63.4677 2127.36 66.8464 2116.47 66.8464C2105.58 66.8464 2095.67 63.4677 2088.27 57.9409C2082.99 54.0009 2072.96 54.0009 2067.68 57.9409C2060.28 63.4677 2050.37 66.8464 2039.47 66.8464C2028.58 66.8464 2018.67 63.4678 2011.27 57.9411C2005.99 54.0011 1995.96 54.0011 1990.68 57.941C1983.28 63.4678 1973.37 66.8464 1962.48 66.8464C1951.59 66.8464 1941.67 63.4678 1934.27 57.9411C1928.99 54.0011 1918.96 54.0011 1913.68 57.941C1906.28 63.4678 1896.37 66.8464 1885.48 66.8464C1874.59 66.8464 1864.68 63.4678 1857.27 57.9411C1851.99 54.0011 1841.96 54.0011 1836.68 57.941C1829.28 63.4678 1819.37 66.8464 1808.48 66.8464C1797.59 66.8464 1787.68 63.4678 1780.27 57.9411C1775 54.0011 1764.96 54.0011 1759.68 57.941C1752.28 63.4678 1742.37 66.8464 1731.48 66.8464C1720.59 66.8464 1710.68 63.4678 1703.27 57.9411C1698 54.0011 1687.96 54.0011 1682.68 57.941C1675.28 63.4678 1665.37 66.8464 1654.48 66.8464C1643.59 66.8464 1633.68 63.4678 1626.28 57.9411C1621 54.0011 1610.96 54.0011 1605.69 57.941C1598.28 63.4678 1588.37 66.8464 1577.48 66.8464C1566.59 66.8464 1556.68 63.4678 1549.28 57.9411C1544 54.0011 1533.96 54.0011 1528.69 57.941C1521.28 63.4678 1511.37 66.8464 1500.48 66.8464C1489.59 66.8464 1479.68 63.4678 1472.28 57.9411C1467 54.0011 1456.96 54.0011 1451.69 57.941C1444.28 63.4678 1434.37 66.8464 1423.48 66.8464C1412.59 66.8464 1402.68 63.4678 1395.28 57.9411C1390 54.0011 1379.97 54.0011 1374.69 57.941C1367.28 63.4678 1357.37 66.8464 1346.48 66.8464C1335.59 66.8464 1325.68 63.4678 1318.28 57.9411C1313 54.0011 1302.97 54.0011 1297.69 57.941C1290.29 63.4678 1280.38 66.8464 1269.48 66.8464C1258.59 66.8464 1248.68 63.4677 1241.28 57.9409C1236 54.001 1225.97 54.001 1220.69 57.9409C1213.29 63.4677 1203.38 66.8464 1192.49 66.8464C1181.6 66.8464 1171.68 63.4678 1164.28 57.9411C1159 54.0011 1148.97 54.0011 1143.69 57.941C1136.29 63.4678 1126.38 66.8464 1115.49 66.8464C1104.6 66.8464 1094.69 63.4678 1087.28 57.9411C1082 54.0011 1071.97 54.0011 1066.69 57.941C1059.29 63.4678 1049.38 66.8464 1038.49 66.8464C1027.6 66.8464 1017.69 63.4678 1010.28 57.9411C1005.01 54.0011 994.971 54.0011 989.693 57.9411C982.29 63.4678 972.379 66.8464 961.489 66.8464C950.598 66.8464 940.687 63.4678 933.284 57.9411C928.007 54.0011 917.972 54.0011 912.694 57.9411C905.291 63.4678 895.38 66.8464 884.49 66.8464C873.599 66.8464 863.688 63.4678 856.285 57.9411C851.008 54.0011 840.973 54.0011 835.695 57.9411C828.292 63.4678 818.381 66.8464 807.491 66.8464C796.6 66.8464 786.689 63.4678 779.286 57.9411C774.009 54.0011 763.974 54.0011 758.696 57.9411C751.293 63.4678 741.382 66.8464 730.492 66.8464C719.601 66.8464 709.69 63.4678 702.287 57.9411C697.009 54.0011 686.975 54.0011 681.697 57.9411C674.294 63.4678 664.383 66.8464 653.493 66.8464C642.602 66.8464 632.691 63.4678 625.288 57.9411C620.01 54.0011 609.976 54.0011 604.698 57.9411C597.295 63.4678 587.384 66.8464 576.494 66.8464C565.603 66.8464 555.692 63.4678 548.289 57.9411C543.011 54.0011 532.977 54.0011 527.699 57.9411C520.296 63.4678 510.385 66.8464 499.495 66.8464C488.604 66.8464 478.693 63.4678 471.29 57.941C466.012 54.001 455.978 54.001 450.7 57.941C443.297 63.4678 433.386 66.8464 422.496 66.8464C411.605 66.8464 401.694 63.4678 394.291 57.941C389.013 54.001 378.979 54.001 373.701 57.941C366.298 63.4678 356.387 66.8464 345.497 66.8464C334.505 66.8464 324.512 63.405 317.087 57.7872C312.043 53.9707 302.951 53.9707 297.906 57.7872C290.482 63.405 280.488 66.8464 269.497 66.8464C258.506 66.8464 248.513 63.405 241.088 57.7872C236.044 53.9707 226.951 53.9707 221.907 57.7872C214.482 63.405 204.489 66.8464 193.498 66.8464C182.607 66.8464 172.697 63.4678 165.294 57.9411C160.016 54.0011 149.981 54.0011 144.703 57.9411C137.3 63.4678 127.389 66.8464 116.499 66.8464C105.479 66.8464 95.4631 63.3874 88.0326 57.744C83.1832 54.061 74.8152 54.061 69.9658 57.744C62.5353 63.3874 52.519 66.8464 41.4997 66.8464Z" fill="#FF5F01"/>
<path fill-rule="evenodd" clip-rule="evenodd" d="M41.4997 79.6928C18.5801 79.6928 0.000114441 64.7287 0.000114441 46.2696C0.000114441 27.8105 18.5801 12.8464 41.4997 12.8464C52.519 12.8464 62.5353 16.3054 69.9658 21.9488C74.8152 25.6318 83.1832 25.6318 88.0326 21.9488C95.4631 16.3054 105.479 12.8464 116.499 12.8464C127.389 12.8464 137.3 16.225 144.703 21.7517C149.981 25.6917 160.016 25.6917 165.294 21.7517C172.697 16.225 182.607 12.8464 193.498 12.8464C204.489 12.8464 214.482 16.2878 221.907 21.9056C226.951 25.7221 236.044 25.7221 241.088 21.9056C248.513 16.2878 258.506 12.8464 269.497 12.8464C280.488 12.8464 290.482 16.2878 297.906 21.9056C302.951 25.7221 312.043 25.7221 317.087 21.9056C324.512 16.2878 334.505 12.8464 345.497 12.8464C356.387 12.8464 366.298 16.225 373.701 21.7518C378.979 25.6918 389.013 25.6918 394.291 21.7518C401.694 16.225 411.605 12.8464 422.496 12.8464C433.386 12.8464 443.297 16.225 450.7 21.7518C455.978 25.6918 466.012 25.6918 471.29 21.7518C478.693 16.225 488.604 12.8464 499.495 12.8464C510.385 12.8464 520.296 16.225 527.699 21.7517C532.977 25.6917 543.011 25.6917 548.289 21.7517C555.692 16.225 565.603 12.8464 576.494 12.8464C587.384 12.8464 597.295 16.225 604.698 21.7517C609.976 25.6917 620.01 25.6917 625.288 21.7517C632.691 16.225 642.602 12.8464 653.493 12.8464C664.383 12.8464 674.294 16.225 681.697 21.7517C686.975 25.6917 697.009 25.6917 702.287 21.7517C709.69 16.225 719.601 12.8464 730.492 12.8464C741.382 12.8464 751.293 16.225 758.696 21.7517C763.974 25.6917 774.009 25.6917 779.286 21.7517C786.689 16.225 796.6 12.8464 807.491 12.8464C818.381 12.8464 828.292 16.225 835.695 21.7517C840.973 25.6917 851.008 25.6917 856.285 21.7517C863.688 16.225 873.599 12.8464 884.49 12.8464C895.38 12.8464 905.291 16.225 912.694 21.7517C917.972 25.6917 928.007 25.6917 933.284 21.7517C940.687 16.225 950.598 12.8464 961.489 12.8464C972.379 12.8464 982.29 16.225 989.693 21.7517C994.971 25.6917 1005.01 25.6917 1010.28 21.7517C1017.69 16.225 1027.6 12.8464 1038.49 12.8464C1049.38 12.8464 1059.29 16.225 1066.69 21.7517C1071.97 25.6917 1082 25.6917 1087.28 21.7517C1094.69 16.225 1104.6 12.8464 1115.49 12.8464C1126.38 12.8464 1136.29 16.225 1143.69 21.7517C1148.97 25.6917 1159 25.6917 1164.28 21.7517C1171.68 16.225 1181.6 12.8464 1192.49 12.8464C1203.38 12.8464 1213.29 16.2251 1220.69 21.7519C1225.97 25.6918 1236 25.6918 1241.28 21.7519C1248.68 16.2251 1258.59 12.8464 1269.48 12.8464C1280.38 12.8464 1290.29 16.225 1297.69 21.7517C1302.97 25.6917 1313 25.6917 1318.28 21.7517C1325.68 16.225 1335.59 12.8464 1346.48 12.8464C1357.37 12.8464 1367.28 16.225 1374.69 21.7517C1379.97 25.6917 1390 25.6917 1395.28 21.7517C1402.68 16.225 1412.59 12.8464 1423.48 12.8464C1434.37 12.8464 1444.28 16.225 1451.69 21.7517C1456.96 25.6917 1467 25.6917 1472.28 21.7517C1479.68 16.225 1489.59 12.8464 1500.48 12.8464C1511.37 12.8464 1521.28 16.225 1528.69 21.7517C1533.96 25.6917 1544 25.6917 1549.28 21.7517C1556.68 16.225 1566.59 12.8464 1577.48 12.8464C1588.37 12.8464 1598.28 16.225 1605.69 21.7517C1610.96 25.6917 1621 25.6917 1626.28 21.7517C1633.68 16.225 1643.59 12.8464 1654.48 12.8464C1665.37 12.8464 1675.28 16.225 1682.68 21.7517C1687.96 25.6917 1698 25.6917 1703.27 21.7517C1710.68 16.225 1720.59 12.8464 1731.48 12.8464C1742.37 12.8464 1752.28 16.225 1759.68 21.7517C1764.96 25.6917 1775 25.6917 1780.27 21.7517C1787.68 16.225 1797.59 12.8464 1808.48 12.8464C1819.37 12.8464 1829.28 16.225 1836.68 21.7517C1841.96 25.6917 1851.99 25.6917 1857.27 21.7517C1864.68 16.225 1874.59 12.8464 1885.48 12.8464C1896.37 12.8464 1906.28 16.225 1913.68 21.7517C1918.96 25.6917 1928.99 25.6917 1934.27 21.7517C1941.67 16.225 1951.59 12.8464 1962.48 12.8464C1973.37 12.8464 1983.28 16.225 1990.68 21.7517C1995.96 25.6917 2005.99 25.6917 2011.27 21.7517C2018.67 16.225 2028.58 12.8464 2039.47 12.8464C2050.37 12.8464 2060.28 16.2251 2067.68 21.7519C2072.96 25.6919 2082.99 25.6919 2088.27 21.7519C2095.67 16.2251 2105.58 12.8464 2116.47 12.8464C2127.36 12.8464 2137.28 16.225 2144.68 21.7518C2149.96 25.6918 2159.99 25.6918 2165.27 21.7519C2172.67 16.2251 2182.58 12.8464 2193.47 12.8464C2204.36 12.8464 2214.27 16.225 2221.68 21.7518C2226.95 25.6918 2236.99 25.6918 2242.27 21.7519C2249.67 16.2251 2259.58 12.8465 2270.47 12.8465C2281.36 12.8465 2291.27 16.2251 2298.68 21.7519C2303.95 25.6918 2313.99 25.6918 2319.27 21.7519C2326.67 16.2251 2336.58 12.8464 2347.47 12.8464C2358.36 12.8464 2368.27 16.2251 2375.68 21.7519C2380.95 25.6919 2390.99 25.6919 2396.27 21.7519C2403.67 16.2251 2413.58 12.8464 2424.47 12.8464C2435.36 12.8464 2445.27 16.2251 2452.67 21.7519C2457.95 25.6919 2467.99 25.6919 2473.26 21.7519C2480.67 16.2251 2490.58 12.8464 2501.47 12.8464C2512.36 12.8464 2522.27 16.2251 2529.67 21.7519C2534.95 25.6919 2544.99 25.6919 2550.26 21.7519C2557.67 16.2251 2567.58 12.8464 2578.47 12.8464C2589.36 12.8464 2599.27 16.2251 2606.67 21.7519C2611.95 25.6919 2621.98 25.6919 2627.26 21.7519C2634.67 16.2251 2644.58 12.8464 2655.47 12.8464C2666.36 12.8464 2676.27 16.2251 2683.67 21.7519C2688.95 25.6919 2698.98 25.6919 2704.26 21.7519C2711.66 16.2251 2721.58 12.8464 2732.47 12.8464C2743.36 12.8464 2753.27 16.2251 2760.67 21.7519C2765.95 25.6919 2775.98 25.6919 2781.26 21.7519C2788.66 16.2251 2798.57 12.8464 2809.46 12.8464C2820.36 12.8464 2830.27 16.2251 2837.67 21.7519C2842.95 25.6919 2852.98 25.6919 2858.26 21.7519C2865.66 16.2251 2875.57 12.8464 2886.46 12.8464C2897.35 12.8464 2907.27 16.2251 2914.67 21.7519C2919.95 25.6919 2929.98 25.6919 2935.26 21.7519C2942.66 16.2251 2952.57 12.8464 2963.46 12.8464C2974.35 12.8464 2984.26 16.2251 2991.67 21.7519C2996.95 25.6919 3006.98 25.6919 3012.26 21.7519C3019.66 16.2251 3029.57 12.8464 3040.46 12.8464C3051.35 12.8464 3061.26 16.2251 3068.67 21.7519C3073.94 25.6919 3083.98 25.6919 3089.26 21.7519C3096.66 16.2251 3106.57 12.8464 3117.46 12.8464C3128.35 12.8464 3138.26 16.2251 3145.67 21.7519C3150.94 25.6919 3160.98 25.6919 3166.26 21.7519C3173.66 16.2251 3183.57 12.8464 3194.46 12.8464C3205.35 12.8464 3215.26 16.2251 3222.66 21.7519C3227.94 25.6919 3237.98 25.6919 3243.25 21.7519C3250.66 16.2251 3260.57 12.8464 3271.46 12.8464C3282.35 12.8464 3292.26 16.2251 3299.66 21.7519C3304.94 25.6919 3314.98 25.6919 3320.25 21.7519C3327.66 16.2251 3337.57 12.8464 3348.46 12.8464C3359.35 12.8464 3369.26 16.2251 3376.66 21.7519C3381.94 25.6919 3391.97 25.6919 3397.25 21.7519C3404.66 16.2251 3414.57 12.8464 3425.46 12.8464C3436.35 12.8464 3446.26 16.2251 3453.66 21.7519C3458.94 25.6919 3468.97 25.6919 3474.25 21.7519C3481.65 16.2251 3491.57 12.8464 3502.46 12.8464C3513.35 12.8464 3523.26 16.2251 3530.66 21.7519C3535.94 25.6919 3545.97 25.6919 3551.25 21.7519C3558.65 16.2251 3568.56 12.8464 3579.46 12.8464C3590.35 12.8464 3600.26 16.2251 3607.66 21.7519C3612.94 25.6919 3622.97 25.6919 3628.25 21.7519C3635.65 16.2251 3645.56 12.8464 3656.45 12.8464C3667.34 12.8464 3677.26 16.2251 3684.66 21.7519C3689.94 25.6919 3699.97 25.6919 3705.25 21.7519C3712.65 16.2251 3722.56 12.8464 3733.45 12.8464C3744.34 12.8464 3754.25 16.2251 3761.66 21.7519C3766.94 25.6919 3776.97 25.6919 3782.25 21.7519C3789.65 16.2251 3799.56 12.8464 3810.45 12.8464C3821.34 12.8464 3831.25 16.2251 3838.66 21.7519C3843.93 25.6919 3853.97 25.6919 3859.25 21.7519C3866.65 16.2251 3876.56 12.8464 3887.45 12.8464C3898.34 12.8464 3908.25 16.2251 3915.66 21.7519C3920.93 25.6919 3930.97 25.6919 3936.25 21.7519C3943.65 16.2251 3953.56 12.8464 3964.45 12.8464C3975.34 12.8464 3985.25 16.2251 3992.65 21.7519C3997.93 25.6919 4007.97 25.6919 4013.24 21.7519C4020.65 16.2251 4030.56 12.8464 4041.45 12.8464C4052.34 12.8464 4062.25 16.2251 4069.65 21.7519C4074.93 25.6919 4084.97 25.6919 4090.24 21.7519C4097.65 16.2251 4107.56 12.8464 4118.45 12.8464C4129.34 12.8464 4139.25 16.225 4146.65 21.7516C4151.93 25.6916 4161.97 25.6916 4167.24 21.7516C4174.65 16.225 4184.56 12.8464 4195.45 12.8464C4206.34 12.8464 4216.25 16.225 4223.65 21.7516C4228.93 25.6916 4238.96 25.6916 4244.24 21.7516C4251.65 16.225 4261.56 12.8464 4272.45 12.8464C4295.37 12.8464 4313.95 27.8105 4313.95 46.2696C4313.95 64.7287 4295.37 79.6928 4272.45 79.6928C4261.56 79.6928 4251.65 76.3143 4244.24 70.7876C4238.96 66.8477 4228.93 66.8477 4223.65 70.7876C4216.25 76.3143 4206.34 79.6928 4195.45 79.6928C4184.56 79.6928 4174.65 76.3143 4167.24 70.7876C4161.97 66.8477 4151.93 66.8477 4146.65 70.7876C4139.25 76.3143 4129.34 79.6928 4118.45 79.6928C4107.56 79.6928 4097.65 76.3141 4090.24 70.7873C4084.97 66.8473 4074.93 66.8473 4069.65 70.7873C4062.25 76.3141 4052.34 79.6928 4041.45 79.6928C4030.56 79.6928 4020.65 76.3142 4013.24 70.7873C4007.97 66.8474 3997.93 66.8473 3992.65 70.7873C3985.25 76.3141 3975.34 79.6928 3964.45 79.6928C3953.56 79.6928 3943.65 76.3142 3936.25 70.7873C3930.97 66.8474 3920.93 66.8473 3915.66 70.7873C3908.25 76.3141 3898.34 79.6928 3887.45 79.6928C3876.56 79.6928 3866.65 76.3142 3859.25 70.7873C3853.97 66.8474 3843.93 66.8473 3838.66 70.7873C3831.25 76.3141 3821.34 79.6928 3810.45 79.6928C3799.56 79.6928 3789.65 76.3142 3782.25 70.7873C3776.97 66.8474 3766.94 66.8473 3761.66 70.7873C3754.25 76.3141 3744.34 79.6928 3733.45 79.6928C3722.56 79.6928 3712.65 76.3142 3705.25 70.7873C3699.97 66.8474 3689.94 66.8473 3684.66 70.7873C3677.26 76.3141 3667.34 79.6928 3656.45 79.6928C3645.56 79.6928 3635.65 76.3142 3628.25 70.7873C3622.97 66.8474 3612.94 66.8473 3607.66 70.7873C3600.26 76.3141 3590.35 79.6928 3579.46 79.6928C3568.56 79.6928 3558.65 76.3142 3551.25 70.7873C3545.97 66.8474 3535.94 66.8473 3530.66 70.7873C3523.26 76.3141 3513.35 79.6928 3502.46 79.6928C3491.57 79.6928 3481.65 76.3142 3474.25 70.7873C3468.97 66.8474 3458.94 66.8473 3453.66 70.7873C3446.26 76.3141 3436.35 79.6928 3425.46 79.6928C3414.57 79.6928 3404.66 76.3142 3397.25 70.7873C3391.97 66.8474 3381.94 66.8473 3376.66 70.7873C3369.26 76.3141 3359.35 79.6928 3348.46 79.6928C3337.57 79.6928 3327.66 76.3142 3320.25 70.7873C3314.98 66.8474 3304.94 66.8473 3299.66 70.7873C3292.26 76.3141 3282.35 79.6928 3271.46 79.6928C3260.57 79.6928 3250.66 76.3142 3243.25 70.7873C3237.98 66.8474 3227.94 66.8473 3222.66 70.7873C3215.26 76.3141 3205.35 79.6928 3194.46 79.6928C3183.57 79.6928 3173.66 76.3142 3166.26 70.7873C3160.98 66.8474 3150.94 66.8473 3145.67 70.7873C3138.26 76.3141 3128.35 79.6928 3117.46 79.6928C3106.57 79.6928 3096.66 76.3142 3089.26 70.7873C3083.98 66.8474 3073.94 66.8473 3068.67 70.7873C3061.26 76.3141 3051.35 79.6928 3040.46 79.6928C3029.57 79.6928 3019.66 76.3142 3012.26 70.7873C3006.98 66.8474 2996.95 66.8473 2991.67 70.7873C2984.26 76.3141 2974.35 79.6928 2963.46 79.6928C2952.57 79.6928 2942.66 76.3142 2935.26 70.7873C2929.98 66.8474 2919.95 66.8473 2914.67 70.7873C2907.27 76.3141 2897.35 79.6928 2886.46 79.6928C2875.57 79.6928 2865.66 76.3142 2858.26 70.7873C2852.98 66.8474 2842.95 66.8473 2837.67 70.7873C2830.27 76.3141 2820.36 79.6928 2809.46 79.6928C2798.57 79.6928 2788.66 76.3142 2781.26 70.7873C2775.98 66.8474 2765.95 66.8473 2760.67 70.7873C2753.27 76.3141 2743.36 79.6928 2732.47 79.6928C2721.58 79.6928 2711.66 76.3142 2704.26 70.7873C2698.98 66.8474 2688.95 66.8473 2683.67 70.7873C2676.27 76.3141 2666.36 79.6928 2655.47 79.6928C2644.58 79.6928 2634.67 76.3142 2627.26 70.7873C2621.98 66.8474 2611.95 66.8473 2606.67 70.7873C2599.27 76.3141 2589.36 79.6928 2578.47 79.6928C2567.58 79.6928 2557.67 76.3142 2550.26 70.7873C2544.99 66.8474 2534.95 66.8473 2529.67 70.7873C2522.27 76.3141 2512.36 79.6928 2501.47 79.6928C2490.58 79.6928 2480.67 76.3142 2473.26 70.7873C2467.99 66.8474 2457.95 66.8473 2452.67 70.7873C2445.27 76.3141 2435.36 79.6928 2424.47 79.6928C2413.58 79.6928 2403.67 76.3142 2396.27 70.7873C2390.99 66.8474 2380.95 66.8473 2375.68 70.7873C2368.27 76.3141 2358.36 79.6928 2347.47 79.6928C2336.58 79.6928 2326.67 76.3142 2319.27 70.7874C2313.99 66.8475 2303.95 66.8475 2298.68 70.7874C2291.27 76.3142 2281.36 79.6929 2270.47 79.6929C2259.58 79.6929 2249.67 76.3143 2242.27 70.7875C2236.99 66.8475 2226.95 66.8475 2221.68 70.7874C2214.27 76.3142 2204.36 79.6928 2193.47 79.6928C2182.58 79.6928 2172.67 76.3142 2165.27 70.7874C2159.99 66.8474 2149.96 66.8475 2144.68 70.7874C2137.28 76.3142 2127.36 79.6928 2116.47 79.6928C2105.58 79.6928 2095.67 76.3142 2088.27 70.7873C2082.99 66.8474 2072.96 66.8473 2067.68 70.7873C2060.28 76.3141 2050.37 79.6928 2039.47 79.6928C2028.58 79.6928 2018.67 76.3142 2011.27 70.7875C2005.99 66.8475 1995.96 66.8475 1990.68 70.7875C1983.28 76.3142 1973.37 79.6928 1962.48 79.6928C1951.59 79.6928 1941.67 76.3142 1934.27 70.7875C1928.99 66.8475 1918.96 66.8475 1913.68 70.7875C1906.28 76.3142 1896.37 79.6928 1885.48 79.6928C1874.59 79.6928 1864.68 76.3142 1857.27 70.7875C1851.99 66.8475 1841.96 66.8475 1836.68 70.7875C1829.28 76.3142 1819.37 79.6928 1808.48 79.6928C1797.59 79.6928 1787.68 76.3142 1780.27 70.7875C1775 66.8475 1764.96 66.8475 1759.68 70.7875C1752.28 76.3142 1742.37 79.6928 1731.48 79.6928C1720.59 79.6928 1710.68 76.3142 1703.27 70.7875C1698 66.8475 1687.96 66.8475 1682.68 70.7875C1675.28 76.3142 1665.37 79.6928 1654.48 79.6928C1643.59 79.6928 1633.68 76.3142 1626.28 70.7875C1621 66.8475 1610.96 66.8475 1605.69 70.7875C1598.28 76.3142 1588.37 79.6928 1577.48 79.6928C1566.59 79.6928 1556.68 76.3142 1549.28 70.7875C1544 66.8475 1533.96 66.8475 1528.69 70.7875C1521.28 76.3142 1511.37 79.6928 1500.48 79.6928C1489.59 79.6928 1479.68 76.3142 1472.28 70.7875C1467 66.8475 1456.96 66.8475 1451.69 70.7875C1444.28 76.3142 1434.37 79.6928 1423.48 79.6928C1412.59 79.6928 1402.68 76.3142 1395.28 70.7875C1390 66.8475 1379.97 66.8475 1374.69 70.7875C1367.28 76.3142 1357.37 79.6928 1346.48 79.6928C1335.59 79.6928 1325.68 76.3142 1318.28 70.7875C1313 66.8475 1302.97 66.8475 1297.69 70.7875C1290.29 76.3142 1280.38 79.6928 1269.48 79.6928C1258.59 79.6928 1248.68 76.3142 1241.28 70.7874C1236 66.8474 1225.97 66.8474 1220.69 70.7873C1213.29 76.3142 1203.38 79.6928 1192.49 79.6928C1181.6 79.6928 1171.68 76.3142 1164.28 70.7875C1159 66.8475 1148.97 66.8475 1143.69 70.7875C1136.29 76.3142 1126.38 79.6928 1115.49 79.6928C1104.6 79.6928 1094.69 76.3142 1087.28 70.7875C1082 66.8475 1071.97 66.8475 1066.69 70.7875C1059.29 76.3142 1049.38 79.6928 1038.49 79.6928C1027.6 79.6928 1017.69 76.3142 1010.28 70.7875C1005.01 66.8475 994.971 66.8475 989.693 70.7875C982.29 76.3142 972.379 79.6928 961.489 79.6928C950.598 79.6928 940.687 76.3142 933.284 70.7875C928.007 66.8475 917.972 66.8475 912.694 70.7875C905.291 76.3142 895.38 79.6928 884.49 79.6928C873.599 79.6928 863.688 76.3142 856.285 70.7875C851.008 66.8475 840.973 66.8475 835.695 70.7875C828.292 76.3142 818.381 79.6928 807.491 79.6928C796.6 79.6928 786.689 76.3142 779.286 70.7875C774.009 66.8475 763.974 66.8475 758.696 70.7875C751.293 76.3142 741.382 79.6928 730.492 79.6928C719.601 79.6928 709.69 76.3142 702.287 70.7875C697.009 66.8475 686.975 66.8475 681.697 70.7875C674.294 76.3142 664.383 79.6928 653.493 79.6928C642.602 79.6928 632.691 76.3142 625.288 70.7875C620.01 66.8475 609.976 66.8475 604.698 70.7875C597.295 76.3142 587.384 79.6928 576.494 79.6928C565.603 79.6928 555.692 76.3142 548.289 70.7875C543.011 66.8475 532.977 66.8475 527.699 70.7875C520.296 76.3142 510.385 79.6928 499.495 79.6928C488.604 79.6928 478.693 76.3142 471.29 70.7874C466.012 66.8475 455.978 66.8475 450.7 70.7874C443.297 76.3142 433.386 79.6928 422.496 79.6928C411.605 79.6928 401.694 76.3142 394.291 70.7874C389.013 66.8475 378.979 66.8475 373.701 70.7874C366.298 76.3142 356.387 79.6928 345.497 79.6928C334.505 79.6928 324.512 76.2515 317.087 70.6337C312.043 66.8171 302.951 66.8171 297.906 70.6337C290.482 76.2515 280.488 79.6928 269.497 79.6928C258.506 79.6928 248.513 76.2515 241.088 70.6337C236.044 66.8171 226.951 66.8171 221.907 70.6337C214.482 76.2515 204.489 79.6928 193.498 79.6928C182.607 79.6928 172.697 76.3142 165.294 70.7875C160.016 66.8475 149.981 66.8475 144.703 70.7875C137.3 76.3142 127.389 79.6928 116.499 79.6928C105.479 79.6928 95.4631 76.2338 88.0326 70.5905C83.1832 66.9074 74.8152 66.9074 69.9658 70.5905C62.5353 76.2338 52.519 79.6928 41.4997 79.6928Z" fill="#D34E00"/>
<path fill-rule="evenodd" clip-rule="evenodd" d="M41.4997 92.5392C18.5801 92.5392 0.000114441 77.5752 0.000114441 59.1161C0.000114441 40.6569 18.5801 25.6929 41.4997 25.6929C52.519 25.6929 62.5353 29.1518 69.9658 34.7952C74.8152 38.4782 83.1832 38.4782 88.0326 34.7952C95.4631 29.1518 105.479 25.6929 116.499 25.6929C127.389 25.6929 137.3 29.0714 144.703 34.5981C149.981 38.5381 160.016 38.5381 165.294 34.5981C172.697 29.0714 182.607 25.6929 193.498 25.6929C204.489 25.6929 214.482 29.1342 221.907 34.752C226.951 38.5686 236.044 38.5686 241.088 34.752C248.513 29.1342 258.506 25.6929 269.497 25.6929C280.488 25.6929 290.482 29.1342 297.906 34.752C302.951 38.5686 312.043 38.5686 317.087 34.752C324.512 29.1342 334.505 25.6929 345.497 25.6929C356.387 25.6929 366.298 29.0715 373.701 34.5982C378.979 38.5382 389.013 38.5382 394.291 34.5982C401.694 29.0715 411.605 25.6929 422.496 25.6929C433.386 25.6929 443.297 29.0715 450.7 34.5982C455.978 38.5382 466.012 38.5382 471.29 34.5982C478.693 29.0715 488.604 25.6929 499.495 25.6929C510.385 25.6929 520.296 29.0714 527.699 34.5982C532.977 38.5381 543.011 38.5381 548.289 34.5982C555.692 29.0714 565.603 25.6929 576.494 25.6929C587.384 25.6929 597.295 29.0714 604.698 34.5982C609.976 38.5381 620.01 38.5381 625.288 34.5982C632.691 29.0714 642.602 25.6929 653.493 25.6929C664.383 25.6929 674.294 29.0714 681.697 34.5982C686.975 38.5381 697.009 38.5381 702.287 34.5982C709.69 29.0714 719.601 25.6929 730.492 25.6929C741.382 25.6929 751.293 29.0714 758.696 34.5982C763.974 38.5381 774.009 38.5381 779.286 34.5982C786.689 29.0714 796.6 25.6929 807.491 25.6929C818.381 25.6929 828.292 29.0714 835.695 34.5982C840.973 38.5381 851.008 38.5381 856.285 34.5982C863.688 29.0714 873.599 25.6929 884.49 25.6929C895.38 25.6929 905.291 29.0714 912.694 34.5982C917.972 38.5381 928.007 38.5381 933.284 34.5982C940.687 29.0714 950.598 25.6929 961.489 25.6929C972.379 25.6929 982.29 29.0714 989.693 34.5982C994.971 38.5381 1005.01 38.5381 1010.28 34.5982C1017.69 29.0714 1027.6 25.6929 1038.49 25.6929C1049.38 25.6929 1059.29 29.0714 1066.69 34.5982C1071.97 38.5381 1082 38.5381 1087.28 34.5982C1094.69 29.0714 1104.6 25.6929 1115.49 25.6929C1126.38 25.6929 1136.29 29.0714 1143.69 34.5982C1148.97 38.5381 1159 38.5381 1164.28 34.5982C1171.68 29.0714 1181.6 25.6929 1192.49 25.6929C1203.38 25.6929 1213.29 29.0715 1220.69 34.5983C1225.97 38.5383 1236 38.5382 1241.28 34.5983C1248.68 29.0715 1258.59 25.6929 1269.48 25.6929C1280.38 25.6929 1290.29 29.0714 1297.69 34.5982C1302.97 38.5381 1313 38.5381 1318.28 34.5982C1325.68 29.0714 1335.59 25.6929 1346.48 25.6929C1357.37 25.6929 1367.28 29.0714 1374.69 34.5982C1379.97 38.5381 1390 38.5381 1395.28 34.5982C1402.68 29.0714 1412.59 25.6929 1423.48 25.6929C1434.37 25.6929 1444.28 29.0714 1451.69 34.5982C1456.96 38.5381 1467 38.5381 1472.28 34.5982C1479.68 29.0714 1489.59 25.6929 1500.48 25.6929C1511.37 25.6929 1521.28 29.0714 1528.69 34.5982C1533.96 38.5381 1544 38.5381 1549.28 34.5982C1556.68 29.0714 1566.59 25.6929 1577.48 25.6929C1588.37 25.6929 1598.28 29.0714 1605.69 34.5982C1610.96 38.5381 1621 38.5381 1626.28 34.5982C1633.68 29.0714 1643.59 25.6929 1654.48 25.6929C1665.37 25.6929 1675.28 29.0714 1682.68 34.5982C1687.96 38.5381 1698 38.5381 1703.27 34.5982C1710.68 29.0714 1720.59 25.6929 1731.48 25.6929C1742.37 25.6929 1752.28 29.0714 1759.68 34.5982C1764.96 38.5381 1775 38.5381 1780.27 34.5982C1787.68 29.0714 1797.59 25.6929 1808.48 25.6929C1819.37 25.6929 1829.28 29.0714 1836.68 34.5982C1841.96 38.5381 1851.99 38.5381 1857.27 34.5982C1864.68 29.0714 1874.59 25.6929 1885.48 25.6929C1896.37 25.6929 1906.28 29.0714 1913.68 34.5982C1918.96 38.5381 1928.99 38.5381 1934.27 34.5982C1941.67 29.0714 1951.59 25.6929 1962.48 25.6929C1973.37 25.6929 1983.28 29.0714 1990.68 34.5982C1995.96 38.5381 2005.99 38.5381 2011.27 34.5982C2018.67 29.0714 2028.58 25.6929 2039.47 25.6929C2050.37 25.6929 2060.28 29.0715 2067.68 34.5984C2072.96 38.5383 2082.99 38.5383 2088.27 34.5984C2095.67 29.0715 2105.58 25.6929 2116.47 25.6929C2127.36 25.6929 2137.28 29.0715 2144.68 34.5983C2149.96 38.5382 2159.99 38.5382 2165.27 34.5983C2172.67 29.0715 2182.58 25.6929 2193.47 25.6929C2204.36 25.6929 2214.27 29.0715 2221.68 34.5982C2226.95 38.5382 2236.99 38.5383 2242.27 34.5983C2249.67 29.0715 2259.58 25.6929 2270.47 25.6929C2281.36 25.6929 2291.27 29.0716 2298.68 34.5983C2303.95 38.5382 2313.99 38.5383 2319.27 34.5983C2326.67 29.0715 2336.58 25.6929 2347.47 25.6929C2358.36 25.6929 2368.27 29.0715 2375.68 34.5984C2380.95 38.5383 2390.99 38.5383 2396.27 34.5984C2403.67 29.0715 2413.58 25.6929 2424.47 25.6929C2435.36 25.6929 2445.27 29.0715 2452.67 34.5984C2457.95 38.5383 2467.99 38.5383 2473.26 34.5984C2480.67 29.0715 2490.58 25.6929 2501.47 25.6929C2512.36 25.6929 2522.27 29.0715 2529.67 34.5984C2534.95 38.5383 2544.99 38.5383 2550.26 34.5984C2557.67 29.0715 2567.58 25.6929 2578.47 25.6929C2589.36 25.6929 2599.27 29.0715 2606.67 34.5984C2611.95 38.5383 2621.98 38.5383 2627.26 34.5984C2634.67 29.0715 2644.58 25.6929 2655.47 25.6929C2666.36 25.6929 2676.27 29.0715 2683.67 34.5984C2688.95 38.5383 2698.98 38.5383 2704.26 34.5984C2711.66 29.0715 2721.58 25.6929 2732.47 25.6929C2743.36 25.6929 2753.27 29.0715 2760.67 34.5984C2765.95 38.5383 2775.98 38.5383 2781.26 34.5984C2788.66 29.0715 2798.57 25.6929 2809.46 25.6929C2820.36 25.6929 2830.27 29.0715 2837.67 34.5984C2842.95 38.5383 2852.98 38.5383 2858.26 34.5984C2865.66 29.0715 2875.57 25.6929 2886.46 25.6929C2897.35 25.6929 2907.27 29.0715 2914.67 34.5984C2919.95 38.5383 2929.98 38.5383 2935.26 34.5984C2942.66 29.0715 2952.57 25.6929 2963.46 25.6929C2974.35 25.6929 2984.26 29.0715 2991.67 34.5984C2996.95 38.5383 3006.98 38.5383 3012.26 34.5984C3019.66 29.0715 3029.57 25.6929 3040.46 25.6929C3051.35 25.6929 3061.26 29.0715 3068.67 34.5984C3073.94 38.5383 3083.98 38.5383 3089.26 34.5984C3096.66 29.0715 3106.57 25.6929 3117.46 25.6929C3128.35 25.6929 3138.26 29.0715 3145.67 34.5984C3150.94 38.5383 3160.98 38.5383 3166.26 34.5984C3173.66 29.0715 3183.57 25.6929 3194.46 25.6929C3205.35 25.6929 3215.26 29.0715 3222.66 34.5984C3227.94 38.5383 3237.98 38.5383 3243.25 34.5984C3250.66 29.0715 3260.57 25.6929 3271.46 25.6929C3282.35 25.6929 3292.26 29.0715 3299.66 34.5984C3304.94 38.5383 3314.98 38.5383 3320.25 34.5984C3327.66 29.0715 3337.57 25.6929 3348.46 25.6929C3359.35 25.6929 3369.26 29.0715 3376.66 34.5984C3381.94 38.5383 3391.97 38.5383 3397.25 34.5984C3404.66 29.0715 3414.57 25.6929 3425.46 25.6929C3436.35 25.6929 3446.26 29.0715 3453.66 34.5984C3458.94 38.5383 3468.97 38.5383 3474.25 34.5984C3481.65 29.0715 3491.57 25.6929 3502.46 25.6929C3513.35 25.6929 3523.26 29.0715 3530.66 34.5984C3535.94 38.5383 3545.97 38.5383 3551.25 34.5984C3558.65 29.0715 3568.56 25.6929 3579.46 25.6929C3590.35 25.6929 3600.26 29.0715 3607.66 34.5984C3612.94 38.5383 3622.97 38.5383 3628.25 34.5984C3635.65 29.0715 3645.56 25.6929 3656.45 25.6929C3667.34 25.6929 3677.26 29.0715 3684.66 34.5984C3689.94 38.5383 3699.97 38.5383 3705.25 34.5984C3712.65 29.0715 3722.56 25.6929 3733.45 25.6929C3744.34 25.6929 3754.25 29.0715 3761.66 34.5984C3766.94 38.5383 3776.97 38.5383 3782.25 34.5984C3789.65 29.0715 3799.56 25.6929 3810.45 25.6929C3821.34 25.6929 3831.25 29.0715 3838.66 34.5984C3843.93 38.5383 3853.97 38.5383 3859.25 34.5984C3866.65 29.0715 3876.56 25.6929 3887.45 25.6929C3898.34 25.6929 3908.25 29.0715 3915.66 34.5984C3920.93 38.5383 3930.97 38.5383 3936.25 34.5984C3943.65 29.0715 3953.56 25.6929 3964.45 25.6929C3975.34 25.6929 3985.25 29.0715 3992.65 34.5984C3997.93 38.5383 4007.97 38.5383 4013.24 34.5984C4020.65 29.0715 4030.56 25.6929 4041.45 25.6929C4052.34 25.6929 4062.25 29.0715 4069.65 34.5984C4074.93 38.5383 4084.97 38.5383 4090.24 34.5984C4097.65 29.0715 4107.56 25.6929 4118.45 25.6929C4129.34 25.6929 4139.25 29.0714 4146.65 34.598C4151.93 38.538 4161.97 38.538 4167.24 34.598C4174.65 29.0714 4184.56 25.6929 4195.45 25.6929C4206.34 25.6929 4216.25 29.0714 4223.65 34.598C4228.93 38.538 4238.96 38.538 4244.24 34.598C4251.65 29.0714 4261.56 25.6929 4272.45 25.6929C4295.37 25.6929 4313.95 40.6569 4313.95 59.1161C4313.95 77.5752 4295.37 92.5392 4272.45 92.5392C4261.56 92.5392 4251.65 89.1607 4244.24 83.6341C4238.96 79.6941 4228.93 79.6941 4223.65 83.6341C4216.25 89.1607 4206.34 92.5392 4195.45 92.5392C4184.56 92.5392 4174.65 89.1607 4167.24 83.6341C4161.97 79.6941 4151.93 79.6941 4146.65 83.6341C4139.25 89.1607 4129.34 92.5392 4118.45 92.5392C4107.56 92.5392 4097.65 89.1606 4090.24 83.6337C4084.97 79.6938 4074.93 79.6938 4069.65 83.6337C4062.25 89.1606 4052.34 92.5392 4041.45 92.5392C4030.56 92.5392 4020.65 89.1606 4013.24 83.6338C4007.97 79.6938 3997.93 79.6938 3992.65 83.6337C3985.25 89.1606 3975.34 92.5392 3964.45 92.5392C3953.56 92.5392 3943.65 89.1606 3936.25 83.6338C3930.97 79.6938 3920.93 79.6938 3915.66 83.6337C3908.25 89.1606 3898.34 92.5392 3887.45 92.5392C3876.56 92.5392 3866.65 89.1606 3859.25 83.6338C3853.97 79.6938 3843.93 79.6938 3838.66 83.6337C3831.25 89.1606 3821.34 92.5392 3810.45 92.5392C3799.56 92.5392 3789.65 89.1606 3782.25 83.6338C3776.97 79.6938 3766.94 79.6938 3761.66 83.6337C3754.25 89.1606 3744.34 92.5392 3733.45 92.5392C3722.56 92.5392 3712.65 89.1606 3705.25 83.6338C3699.97 79.6938 3689.94 79.6938 3684.66 83.6337C3677.26 89.1606 3667.34 92.5392 3656.45 92.5392C3645.56 92.5392 3635.65 89.1606 3628.25 83.6338C3622.97 79.6938 3612.94 79.6938 3607.66 83.6337C3600.26 89.1606 3590.35 92.5392 3579.46 92.5392C3568.56 92.5392 3558.65 89.1606 3551.25 83.6338C3545.97 79.6938 3535.94 79.6938 3530.66 83.6337C3523.26 89.1606 3513.35 92.5392 3502.46 92.5392C3491.57 92.5392 3481.65 89.1606 3474.25 83.6338C3468.97 79.6938 3458.94 79.6938 3453.66 83.6337C3446.26 89.1606 3436.35 92.5392 3425.46 92.5392C3414.57 92.5392 3404.66 89.1606 3397.25 83.6338C3391.97 79.6938 3381.94 79.6938 3376.66 83.6337C3369.26 89.1606 3359.35 92.5392 3348.46 92.5392C3337.57 92.5392 3327.66 89.1606 3320.25 83.6338C3314.98 79.6938 3304.94 79.6938 3299.66 83.6337C3292.26 89.1606 3282.35 92.5392 3271.46 92.5392C3260.57 92.5392 3250.66 89.1606 3243.25 83.6338C3237.98 79.6938 3227.94 79.6938 3222.66 83.6337C3215.26 89.1606 3205.35 92.5392 3194.46 92.5392C3183.57 92.5392 3173.66 89.1606 3166.26 83.6338C3160.98 79.6938 3150.94 79.6938 3145.67 83.6337C3138.26 89.1606 3128.35 92.5392 3117.46 92.5392C3106.57 92.5392 3096.66 89.1606 3089.26 83.6338C3083.98 79.6938 3073.94 79.6938 3068.67 83.6337C3061.26 89.1606 3051.35 92.5392 3040.46 92.5392C3029.57 92.5392 3019.66 89.1606 3012.26 83.6338C3006.98 79.6938 2996.95 79.6938 2991.67 83.6337C2984.26 89.1606 2974.35 92.5392 2963.46 92.5392C2952.57 92.5392 2942.66 89.1606 2935.26 83.6338C2929.98 79.6938 2919.95 79.6938 2914.67 83.6337C2907.27 89.1606 2897.35 92.5392 2886.46 92.5392C2875.57 92.5392 2865.66 89.1606 2858.26 83.6338C2852.98 79.6938 2842.95 79.6938 2837.67 83.6337C2830.27 89.1606 2820.36 92.5392 2809.46 92.5392C2798.57 92.5392 2788.66 89.1606 2781.26 83.6338C2775.98 79.6938 2765.95 79.6938 2760.67 83.6337C2753.27 89.1606 2743.36 92.5392 2732.47 92.5392C2721.58 92.5392 2711.66 89.1606 2704.26 83.6338C2698.98 79.6938 2688.95 79.6938 2683.67 83.6337C2676.27 89.1606 2666.36 92.5392 2655.47 92.5392C2644.58 92.5392 2634.67 89.1606 2627.26 83.6338C2621.98 79.6938 2611.95 79.6938 2606.67 83.6337C2599.27 89.1606 2589.36 92.5392 2578.47 92.5392C2567.58 92.5392 2557.67 89.1606 2550.26 83.6338C2544.99 79.6938 2534.95 79.6938 2529.67 83.6337C2522.27 89.1606 2512.36 92.5392 2501.47 92.5392C2490.58 92.5392 2480.67 89.1606 2473.26 83.6338C2467.99 79.6938 2457.95 79.6938 2452.67 83.6337C2445.27 89.1606 2435.36 92.5392 2424.47 92.5392C2413.58 92.5392 2403.67 89.1606 2396.27 83.6338C2390.99 79.6938 2380.95 79.6938 2375.68 83.6337C2368.27 89.1606 2358.36 92.5392 2347.47 92.5392C2336.58 92.5392 2326.67 89.1606 2319.27 83.6338C2313.99 79.6939 2303.95 79.6939 2298.68 83.6339C2291.27 89.1607 2281.36 92.5393 2270.47 92.5393C2259.58 92.5393 2249.67 89.1607 2242.27 83.6339C2236.99 79.694 2226.95 79.6939 2221.68 83.6339C2214.27 89.1606 2204.36 92.5392 2193.47 92.5392C2182.58 92.5392 2172.67 89.1606 2165.27 83.6338C2159.99 79.6939 2149.96 79.6939 2144.68 83.6338C2137.28 89.1606 2127.36 92.5392 2116.47 92.5392C2105.58 92.5392 2095.67 89.1606 2088.27 83.6338C2082.99 79.6938 2072.96 79.6938 2067.68 83.6337C2060.28 89.1606 2050.37 92.5392 2039.47 92.5392C2028.58 92.5392 2018.67 89.1607 2011.27 83.6339C2005.99 79.694 1995.96 79.694 1990.68 83.6339C1983.28 89.1607 1973.37 92.5392 1962.48 92.5392C1951.59 92.5392 1941.67 89.1607 1934.27 83.6339C1928.99 79.694 1918.96 79.694 1913.68 83.6339C1906.28 89.1607 1896.37 92.5392 1885.48 92.5392C1874.59 92.5392 1864.68 89.1607 1857.27 83.6339C1851.99 79.694 1841.96 79.694 1836.68 83.6339C1829.28 89.1607 1819.37 92.5392 1808.48 92.5392C1797.59 92.5392 1787.68 89.1607 1780.27 83.6339C1775 79.694 1764.96 79.694 1759.68 83.6339C1752.28 89.1607 1742.37 92.5392 1731.48 92.5392C1720.59 92.5392 1710.68 89.1607 1703.27 83.6339C1698 79.694 1687.96 79.694 1682.68 83.6339C1675.28 89.1607 1665.37 92.5392 1654.48 92.5392C1643.59 92.5392 1633.68 89.1607 1626.28 83.6339C1621 79.694 1610.96 79.694 1605.69 83.6339C1598.28 89.1607 1588.37 92.5392 1577.48 92.5392C1566.59 92.5392 1556.68 89.1607 1549.28 83.6339C1544 79.694 1533.96 79.694 1528.69 83.6339C1521.28 89.1607 1511.37 92.5392 1500.48 92.5392C1489.59 92.5392 1479.68 89.1607 1472.28 83.6339C1467 79.694 1456.96 79.694 1451.69 83.6339C1444.28 89.1607 1434.37 92.5392 1423.48 92.5392C1412.59 92.5392 1402.68 89.1607 1395.28 83.6339C1390 79.694 1379.97 79.694 1374.69 83.6339C1367.28 89.1607 1357.37 92.5392 1346.48 92.5392C1335.59 92.5392 1325.68 89.1607 1318.28 83.6339C1313 79.694 1302.97 79.694 1297.69 83.6339C1290.29 89.1607 1280.38 92.5392 1269.48 92.5392C1258.59 92.5392 1248.68 89.1606 1241.28 83.6338C1236 79.6939 1225.97 79.6939 1220.69 83.6338C1213.29 89.1606 1203.38 92.5392 1192.49 92.5392C1181.6 92.5392 1171.68 89.1607 1164.28 83.6339C1159 79.694 1148.97 79.694 1143.69 83.6339C1136.29 89.1607 1126.38 92.5392 1115.49 92.5392C1104.6 92.5392 1094.69 89.1607 1087.28 83.6339C1082 79.694 1071.97 79.694 1066.69 83.6339C1059.29 89.1607 1049.38 92.5392 1038.49 92.5392C1027.6 92.5392 1017.69 89.1607 1010.28 83.6339C1005.01 79.694 994.971 79.694 989.693 83.6339C982.29 89.1607 972.379 92.5392 961.489 92.5392C950.598 92.5392 940.687 89.1607 933.284 83.6339C928.007 79.694 917.972 79.694 912.694 83.6339C905.291 89.1607 895.38 92.5392 884.49 92.5392C873.599 92.5392 863.688 89.1607 856.285 83.6339C851.008 79.694 840.973 79.694 835.695 83.6339C828.292 89.1607 818.381 92.5392 807.491 92.5392C796.6 92.5392 786.689 89.1607 779.286 83.6339C774.009 79.694 763.974 79.694 758.696 83.6339C751.293 89.1607 741.382 92.5392 730.492 92.5392C719.601 92.5392 709.69 89.1607 702.287 83.6339C697.009 79.694 686.975 79.694 681.697 83.6339C674.294 89.1607 664.383 92.5392 653.493 92.5392C642.602 92.5392 632.691 89.1607 625.288 83.6339C620.01 79.694 609.976 79.694 604.698 83.6339C597.295 89.1607 587.384 92.5392 576.494 92.5392C565.603 92.5392 555.692 89.1607 548.289 83.6339C543.011 79.694 532.977 79.694 527.699 83.6339C520.296 89.1607 510.385 92.5392 499.495 92.5392C488.604 92.5392 478.693 89.1606 471.29 83.6339C466.012 79.6939 455.978 79.6939 450.7 83.6339C443.297 89.1606 433.386 92.5392 422.496 92.5392C411.605 92.5392 401.694 89.1606 394.291 83.6339C389.013 79.6939 378.979 79.6939 373.701 83.6339C366.298 89.1606 356.387 92.5392 345.497 92.5392C334.505 92.5392 324.512 89.0979 317.087 83.4801C312.043 79.6635 302.951 79.6635 297.906 83.4801C290.482 89.0979 280.488 92.5392 269.497 92.5392C258.506 92.5392 248.513 89.0979 241.088 83.4801C236.044 79.6635 226.951 79.6635 221.907 83.4801C214.482 89.0979 204.489 92.5392 193.498 92.5392C182.607 92.5392 172.697 89.1607 165.294 83.634C160.016 79.694 149.981 79.694 144.703 83.634C137.3 89.1607 127.389 92.5392 116.499 92.5392C105.479 92.5392 95.4631 89.0803 88.0326 83.4369C83.1832 79.7539 74.8152 79.7539 69.9658 83.4369C62.5353 89.0803 52.519 92.5392 41.4997 92.5392Z" fill="#C23D00"/>
<path fill-rule="evenodd" clip-rule="evenodd" d="M41.4997 105.386C18.5801 105.386 0.000114441 90.4216 0.000114441 71.9625C0.000114441 53.5034 18.5801 38.5393 41.4997 38.5393C52.519 38.5393 62.5353 41.9983 69.9658 47.6416C74.8152 51.3247 83.1832 51.3247 88.0326 47.6416C95.4631 41.9983 105.479 38.5393 116.499 38.5393C127.389 38.5393 137.3 41.9179 144.703 47.4446C149.981 51.3846 160.016 51.3846 165.294 47.4446C172.697 41.9179 182.607 38.5393 193.498 38.5393C204.489 38.5393 214.482 41.9806 221.907 47.5984C226.951 51.415 236.044 51.415 241.088 47.5984C248.513 41.9806 258.506 38.5393 269.497 38.5393C280.488 38.5393 290.482 41.9806 297.906 47.5984C302.951 51.415 312.043 51.415 317.087 47.5984C324.512 41.9806 334.505 38.5393 345.497 38.5393C356.387 38.5393 366.298 41.9179 373.701 47.4447C378.979 51.3846 389.013 51.3846 394.291 47.4447C401.694 41.9179 411.605 38.5393 422.496 38.5393C433.386 38.5393 443.297 41.9179 450.7 47.4447C455.978 51.3846 466.012 51.3846 471.29 47.4447C478.693 41.9179 488.604 38.5393 499.495 38.5393C510.385 38.5393 520.296 41.9179 527.699 47.4446C532.977 51.3846 543.011 51.3846 548.289 47.4446C555.692 41.9179 565.603 38.5393 576.494 38.5393C587.384 38.5393 597.295 41.9179 604.698 47.4446C609.976 51.3846 620.01 51.3846 625.288 47.4446C632.691 41.9179 642.602 38.5393 653.493 38.5393C664.383 38.5393 674.294 41.9179 681.697 47.4446C686.975 51.3846 697.009 51.3846 702.287 47.4446C709.69 41.9179 719.601 38.5393 730.492 38.5393C741.382 38.5393 751.293 41.9179 758.696 47.4446C763.974 51.3846 774.009 51.3846 779.286 47.4446C786.689 41.9179 796.6 38.5393 807.491 38.5393C818.381 38.5393 828.292 41.9179 835.695 47.4446C840.973 51.3846 851.008 51.3846 856.285 47.4446C863.688 41.9179 873.599 38.5393 884.49 38.5393C895.38 38.5393 905.291 41.9179 912.694 47.4446C917.972 51.3846 928.007 51.3846 933.284 47.4446C940.687 41.9179 950.598 38.5393 961.489 38.5393C972.379 38.5393 982.29 41.9179 989.693 47.4446C994.971 51.3846 1005.01 51.3846 1010.28 47.4446C1017.69 41.9179 1027.6 38.5393 1038.49 38.5393C1049.38 38.5393 1059.29 41.9179 1066.69 47.4446C1071.97 51.3846 1082 51.3846 1087.28 47.4446C1094.69 41.9179 1104.6 38.5393 1115.49 38.5393C1126.38 38.5393 1136.29 41.9179 1143.69 47.4446C1148.97 51.3846 1159 51.3846 1164.28 47.4446C1171.68 41.9179 1181.6 38.5393 1192.49 38.5393C1203.38 38.5393 1213.29 41.9179 1220.69 47.4448C1225.97 51.3847 1236 51.3847 1241.28 47.4447C1248.68 41.9179 1258.59 38.5393 1269.48 38.5393C1280.38 38.5393 1290.29 41.9179 1297.69 47.4446C1302.97 51.3846 1313 51.3846 1318.28 47.4446C1325.68 41.9179 1335.59 38.5393 1346.48 38.5393C1357.37 38.5393 1367.28 41.9179 1374.69 47.4446C1379.97 51.3846 1390 51.3846 1395.28 47.4446C1402.68 41.9179 1412.59 38.5393 1423.48 38.5393C1434.37 38.5393 1444.28 41.9179 1451.69 47.4446C1456.96 51.3846 1467 51.3846 1472.28 47.4446C1479.68 41.9179 1489.59 38.5393 1500.48 38.5393C1511.37 38.5393 1521.28 41.9179 1528.69 47.4446C1533.96 51.3846 1544 51.3846 1549.28 47.4446C1556.68 41.9179 1566.59 38.5393 1577.48 38.5393C1588.37 38.5393 1598.28 41.9179 1605.69 47.4446C1610.96 51.3846 1621 51.3846 1626.28 47.4446C1633.68 41.9179 1643.59 38.5393 1654.48 38.5393C1665.37 38.5393 1675.28 41.9179 1682.68 47.4446C1687.96 51.3846 1698 51.3846 1703.27 47.4446C1710.68 41.9179 1720.59 38.5393 1731.48 38.5393C1742.37 38.5393 1752.28 41.9179 1759.68 47.4446C1764.96 51.3846 1775 51.3846 1780.27 47.4446C1787.68 41.9179 1797.59 38.5393 1808.48 38.5393C1819.37 38.5393 1829.28 41.9179 1836.68 47.4446C1841.96 51.3846 1851.99 51.3846 1857.27 47.4446C1864.68 41.9179 1874.59 38.5393 1885.48 38.5393C1896.37 38.5393 1906.28 41.9179 1913.68 47.4446C1918.96 51.3846 1928.99 51.3846 1934.27 47.4446C1941.67 41.9179 1951.59 38.5393 1962.48 38.5393C1973.37 38.5393 1983.28 41.9179 1990.68 47.4446C1995.96 51.3846 2005.99 51.3846 2011.27 47.4446C2018.67 41.9179 2028.58 38.5393 2039.47 38.5393C2050.37 38.5393 2060.28 41.918 2067.68 47.4448C2072.96 51.3848 2082.99 51.3847 2088.27 47.4448C2095.67 41.918 2105.58 38.5393 2116.47 38.5393C2127.36 38.5393 2137.28 41.9179 2144.68 47.4447C2149.96 51.3846 2159.99 51.3847 2165.27 47.4447C2172.67 41.9179 2182.58 38.5393 2193.47 38.5393C2204.36 38.5393 2214.27 41.9179 2221.68 47.4447C2226.95 51.3846 2236.99 51.3847 2242.27 47.4447C2249.67 41.918 2259.58 38.5394 2270.47 38.5394C2281.36 38.5394 2291.27 41.918 2298.68 47.4448C2303.95 51.3847 2313.99 51.3847 2319.27 47.4448C2326.67 41.9179 2336.58 38.5393 2347.47 38.5393C2358.36 38.5393 2368.27 41.918 2375.68 47.4448C2380.95 51.3848 2390.99 51.3847 2396.27 47.4448C2403.67 41.918 2413.58 38.5393 2424.47 38.5393C2435.36 38.5393 2445.27 41.918 2452.67 47.4448C2457.95 51.3848 2467.99 51.3847 2473.26 47.4448C2480.67 41.918 2490.58 38.5393 2501.47 38.5393C2512.36 38.5393 2522.27 41.918 2529.67 47.4448C2534.95 51.3848 2544.99 51.3847 2550.26 47.4448C2557.67 41.918 2567.58 38.5393 2578.47 38.5393C2589.36 38.5393 2599.27 41.918 2606.67 47.4448C2611.95 51.3848 2621.98 51.3847 2627.26 47.4448C2634.67 41.918 2644.58 38.5393 2655.47 38.5393C2666.36 38.5393 2676.27 41.918 2683.67 47.4448C2688.95 51.3848 2698.98 51.3847 2704.26 47.4448C2711.66 41.918 2721.58 38.5393 2732.47 38.5393C2743.36 38.5393 2753.27 41.918 2760.67 47.4448C2765.95 51.3848 2775.98 51.3847 2781.26 47.4448C2788.66 41.918 2798.57 38.5393 2809.46 38.5393C2820.36 38.5393 2830.27 41.918 2837.67 47.4448C2842.95 51.3848 2852.98 51.3847 2858.26 47.4448C2865.66 41.918 2875.57 38.5393 2886.46 38.5393C2897.35 38.5393 2907.27 41.918 2914.67 47.4448C2919.95 51.3848 2929.98 51.3847 2935.26 47.4448C2942.66 41.918 2952.57 38.5393 2963.46 38.5393C2974.35 38.5393 2984.26 41.918 2991.67 47.4448C2996.95 51.3848 3006.98 51.3847 3012.26 47.4448C3019.66 41.918 3029.57 38.5393 3040.46 38.5393C3051.35 38.5393 3061.26 41.918 3068.67 47.4448C3073.94 51.3848 3083.98 51.3847 3089.26 47.4448C3096.66 41.918 3106.57 38.5393 3117.46 38.5393C3128.35 38.5393 3138.26 41.918 3145.67 47.4448C3150.94 51.3848 3160.98 51.3847 3166.26 47.4448C3173.66 41.918 3183.57 38.5393 3194.46 38.5393C3205.35 38.5393 3215.26 41.918 3222.66 47.4448C3227.94 51.3848 3237.98 51.3847 3243.25 47.4448C3250.66 41.918 3260.57 38.5393 3271.46 38.5393C3282.35 38.5393 3292.26 41.918 3299.66 47.4448C3304.94 51.3848 3314.98 51.3847 3320.25 47.4448C3327.66 41.918 3337.57 38.5393 3348.46 38.5393C3359.35 38.5393 3369.26 41.918 3376.66 47.4448C3381.94 51.3848 3391.97 51.3847 3397.25 47.4448C3404.66 41.918 3414.57 38.5393 3425.46 38.5393C3436.35 38.5393 3446.26 41.918 3453.66 47.4448C3458.94 51.3848 3468.97 51.3847 3474.25 47.4448C3481.65 41.918 3491.57 38.5393 3502.46 38.5393C3513.35 38.5393 3523.26 41.918 3530.66 47.4448C3535.94 51.3848 3545.97 51.3847 3551.25 47.4448C3558.65 41.918 3568.56 38.5393 3579.46 38.5393C3590.35 38.5393 3600.26 41.918 3607.66 47.4448C3612.94 51.3848 3622.97 51.3847 3628.25 47.4448C3635.65 41.918 3645.56 38.5393 3656.45 38.5393C3667.34 38.5393 3677.26 41.918 3684.66 47.4448C3689.94 51.3848 3699.97 51.3847 3705.25 47.4448C3712.65 41.918 3722.56 38.5393 3733.45 38.5393C3744.34 38.5393 3754.25 41.918 3761.66 47.4448C3766.94 51.3848 3776.97 51.3847 3782.25 47.4448C3789.65 41.918 3799.56 38.5393 3810.45 38.5393C3821.34 38.5393 3831.25 41.918 3838.66 47.4448C3843.93 51.3848 3853.97 51.3847 3859.25 47.4448C3866.65 41.918 3876.56 38.5393 3887.45 38.5393C3898.34 38.5393 3908.25 41.918 3915.66 47.4448C3920.93 51.3848 3930.97 51.3847 3936.25 47.4448C3943.65 41.918 3953.56 38.5393 3964.45 38.5393C3975.34 38.5393 3985.25 41.918 3992.65 47.4448C3997.93 51.3848 4007.97 51.3847 4013.24 47.4448C4020.65 41.918 4030.56 38.5393 4041.45 38.5393C4052.34 38.5393 4062.25 41.918 4069.65 47.4448C4074.93 51.3848 4084.97 51.3848 4090.24 47.4448C4097.65 41.918 4107.56 38.5393 4118.45 38.5393C4129.34 38.5393 4139.25 41.9178 4146.65 47.4445C4151.93 51.3844 4161.97 51.3844 4167.24 47.4445C4174.65 41.9178 4184.56 38.5393 4195.45 38.5393C4206.34 38.5393 4216.25 41.9178 4223.65 47.4445C4228.93 51.3844 4238.96 51.3844 4244.24 47.4445C4251.65 41.9178 4261.56 38.5393 4272.45 38.5393C4295.37 38.5393 4313.95 53.5034 4313.95 71.9625C4313.95 90.4216 4295.37 105.386 4272.45 105.386C4261.56 105.386 4251.65 102.007 4244.24 96.4805C4238.96 92.5405 4228.93 92.5405 4223.65 96.4805C4216.25 102.007 4206.34 105.386 4195.45 105.386C4184.56 105.386 4174.65 102.007 4167.24 96.4805C4161.97 92.5405 4151.93 92.5405 4146.65 96.4805C4139.25 102.007 4129.34 105.386 4118.45 105.386C4107.56 105.386 4097.65 102.007 4090.24 96.4802C4084.97 92.5402 4074.93 92.5402 4069.65 96.4802C4062.25 102.007 4052.34 105.386 4041.45 105.386C4030.56 105.386 4020.65 102.007 4013.24 96.4802C4007.97 92.5402 3997.93 92.5402 3992.65 96.4802C3985.25 102.007 3975.34 105.386 3964.45 105.386C3953.56 105.386 3943.65 102.007 3936.25 96.4802C3930.97 92.5402 3920.93 92.5402 3915.66 96.4802C3908.25 102.007 3898.34 105.386 3887.45 105.386C3876.56 105.386 3866.65 102.007 3859.25 96.4802C3853.97 92.5402 3843.93 92.5402 3838.66 96.4802C3831.25 102.007 3821.34 105.386 3810.45 105.386C3799.56 105.386 3789.65 102.007 3782.25 96.4802C3776.97 92.5402 3766.94 92.5402 3761.66 96.4802C3754.25 102.007 3744.34 105.386 3733.45 105.386C3722.56 105.386 3712.65 102.007 3705.25 96.4802C3699.97 92.5402 3689.94 92.5402 3684.66 96.4802C3677.26 102.007 3667.34 105.386 3656.45 105.386C3645.56 105.386 3635.65 102.007 3628.25 96.4802C3622.97 92.5402 3612.94 92.5402 3607.66 96.4802C3600.26 102.007 3590.35 105.386 3579.46 105.386C3568.56 105.386 3558.65 102.007 3551.25 96.4802C3545.97 92.5402 3535.94 92.5402 3530.66 96.4802C3523.26 102.007 3513.35 105.386 3502.46 105.386C3491.57 105.386 3481.65 102.007 3474.25 96.4802C3468.97 92.5402 3458.94 92.5402 3453.66 96.4802C3446.26 102.007 3436.35 105.386 3425.46 105.386C3414.57 105.386 3404.66 102.007 3397.25 96.4802C3391.97 92.5402 3381.94 92.5402 3376.66 96.4802C3369.26 102.007 3359.35 105.386 3348.46 105.386C3337.57 105.386 3327.66 102.007 3320.25 96.4802C3314.98 92.5402 3304.94 92.5402 3299.66 96.4802C3292.26 102.007 3282.35 105.386 3271.46 105.386C3260.57 105.386 3250.66 102.007 3243.25 96.4802C3237.98 92.5402 3227.94 92.5402 3222.66 96.4802C3215.26 102.007 3205.35 105.386 3194.46 105.386C3183.57 105.386 3173.66 102.007 3166.26 96.4802C3160.98 92.5402 3150.94 92.5402 3145.67 96.4802C3138.26 102.007 3128.35 105.386 3117.46 105.386C3106.57 105.386 3096.66 102.007 3089.26 96.4802C3083.98 92.5402 3073.94 92.5402 3068.67 96.4802C3061.26 102.007 3051.35 105.386 3040.46 105.386C3029.57 105.386 3019.66 102.007 3012.26 96.4802C3006.98 92.5402 2996.95 92.5402 2991.67 96.4802C2984.26 102.007 2974.35 105.386 2963.46 105.386C2952.57 105.386 2942.66 102.007 2935.26 96.4802C2929.98 92.5402 2919.95 92.5402 2914.67 96.4802C2907.27 102.007 2897.35 105.386 2886.46 105.386C2875.57 105.386 2865.66 102.007 2858.26 96.4802C2852.98 92.5402 2842.95 92.5402 2837.67 96.4802C2830.27 102.007 2820.36 105.386 2809.46 105.386C2798.57 105.386 2788.66 102.007 2781.26 96.4802C2775.98 92.5402 2765.95 92.5402 2760.67 96.4802C2753.27 102.007 2743.36 105.386 2732.47 105.386C2721.58 105.386 2711.66 102.007 2704.26 96.4802C2698.98 92.5402 2688.95 92.5402 2683.67 96.4802C2676.27 102.007 2666.36 105.386 2655.47 105.386C2644.58 105.386 2634.67 102.007 2627.26 96.4802C2621.98 92.5402 2611.95 92.5402 2606.67 96.4802C2599.27 102.007 2589.36 105.386 2578.47 105.386C2567.58 105.386 2557.67 102.007 2550.26 96.4802C2544.99 92.5402 2534.95 92.5402 2529.67 96.4802C2522.27 102.007 2512.36 105.386 2501.47 105.386C2490.58 105.386 2480.67 102.007 2473.26 96.4802C2467.99 92.5402 2457.95 92.5402 2452.67 96.4802C2445.27 102.007 2435.36 105.386 2424.47 105.386C2413.58 105.386 2403.67 102.007 2396.27 96.4802C2390.99 92.5402 2380.95 92.5402 2375.68 96.4802C2368.27 102.007 2358.36 105.386 2347.47 105.386C2336.58 105.386 2326.67 102.007 2319.27 96.4803C2313.99 92.5404 2303.95 92.5404 2298.68 96.4803C2291.27 102.007 2281.36 105.386 2270.47 105.386C2259.58 105.386 2249.67 102.007 2242.27 96.4804C2236.99 92.5404 2226.95 92.5403 2221.68 96.4803C2214.27 102.007 2204.36 105.386 2193.47 105.386C2182.58 105.386 2172.67 102.007 2165.27 96.4802C2159.99 92.5403 2149.96 92.5403 2144.68 96.4803C2137.28 102.007 2127.36 105.386 2116.47 105.386C2105.58 105.386 2095.67 102.007 2088.27 96.4802C2082.99 92.5402 2072.96 92.5402 2067.68 96.4802C2060.28 102.007 2050.37 105.386 2039.47 105.386C2028.58 105.386 2018.67 102.007 2011.27 96.4804C2005.99 92.5404 1995.96 92.5404 1990.68 96.4804C1983.28 102.007 1973.37 105.386 1962.48 105.386C1951.59 105.386 1941.67 102.007 1934.27 96.4804C1928.99 92.5404 1918.96 92.5404 1913.68 96.4804C1906.28 102.007 1896.37 105.386 1885.48 105.386C1874.59 105.386 1864.68 102.007 1857.27 96.4804C1851.99 92.5404 1841.96 92.5404 1836.68 96.4804C1829.28 102.007 1819.37 105.386 1808.48 105.386C1797.59 105.386 1787.68 102.007 1780.27 96.4804C1775 92.5404 1764.96 92.5404 1759.68 96.4804C1752.28 102.007 1742.37 105.386 1731.48 105.386C1720.59 105.386 1710.68 102.007 1703.27 96.4804C1698 92.5404 1687.96 92.5404 1682.68 96.4804C1675.28 102.007 1665.37 105.386 1654.48 105.386C1643.59 105.386 1633.68 102.007 1626.28 96.4804C1621 92.5404 1610.96 92.5404 1605.69 96.4804C1598.28 102.007 1588.37 105.386 1577.48 105.386C1566.59 105.386 1556.68 102.007 1549.28 96.4804C1544 92.5404 1533.96 92.5404 1528.69 96.4804C1521.28 102.007 1511.37 105.386 1500.48 105.386C1489.59 105.386 1479.68 102.007 1472.28 96.4804C1467 92.5404 1456.96 92.5404 1451.69 96.4804C1444.28 102.007 1434.37 105.386 1423.48 105.386C1412.59 105.386 1402.68 102.007 1395.28 96.4804C1390 92.5404 1379.97 92.5404 1374.69 96.4804C1367.28 102.007 1357.37 105.386 1346.48 105.386C1335.59 105.386 1325.68 102.007 1318.28 96.4804C1313 92.5404 1302.97 92.5404 1297.69 96.4804C1290.29 102.007 1280.38 105.386 1269.48 105.386C1258.59 105.386 1248.68 102.007 1241.28 96.4802C1236 92.5403 1225.97 92.5403 1220.69 96.4802C1213.29 102.007 1203.38 105.386 1192.49 105.386C1181.6 105.386 1171.68 102.007 1164.28 96.4804C1159 92.5404 1148.97 92.5404 1143.69 96.4804C1136.29 102.007 1126.38 105.386 1115.49 105.386C1104.6 105.386 1094.69 102.007 1087.28 96.4804C1082 92.5404 1071.97 92.5404 1066.69 96.4804C1059.29 102.007 1049.38 105.386 1038.49 105.386C1027.6 105.386 1017.69 102.007 1010.28 96.4804C1005.01 92.5404 994.971 92.5404 989.693 96.4804C982.29 102.007 972.379 105.386 961.489 105.386C950.598 105.386 940.687 102.007 933.284 96.4804C928.007 92.5404 917.972 92.5404 912.694 96.4804C905.291 102.007 895.38 105.386 884.49 105.386C873.599 105.386 863.688 102.007 856.285 96.4804C851.008 92.5404 840.973 92.5404 835.695 96.4804C828.292 102.007 818.381 105.386 807.491 105.386C796.6 105.386 786.689 102.007 779.286 96.4804C774.009 92.5404 763.974 92.5404 758.696 96.4804C751.293 102.007 741.382 105.386 730.492 105.386C719.601 105.386 709.69 102.007 702.287 96.4804C697.009 92.5404 686.975 92.5404 681.697 96.4804C674.294 102.007 664.383 105.386 653.493 105.386C642.602 105.386 632.691 102.007 625.288 96.4804C620.01 92.5404 609.976 92.5404 604.698 96.4804C597.295 102.007 587.384 105.386 576.494 105.386C565.603 105.386 555.692 102.007 548.289 96.4804C543.011 92.5404 532.977 92.5404 527.699 96.4804C520.296 102.007 510.385 105.386 499.495 105.386C488.604 105.386 478.693 102.007 471.29 96.4803C466.012 92.5403 455.978 92.5403 450.7 96.4803C443.297 102.007 433.386 105.386 422.496 105.386C411.605 105.386 401.694 102.007 394.291 96.4803C389.013 92.5403 378.979 92.5403 373.701 96.4803C366.298 102.007 356.387 105.386 345.497 105.386C334.505 105.386 324.512 101.944 317.087 96.3265C312.043 92.51 302.951 92.51 297.906 96.3265C290.482 101.944 280.488 105.386 269.497 105.386C258.506 105.386 248.513 101.944 241.088 96.3265C236.044 92.51 226.951 92.51 221.907 96.3265C214.482 101.944 204.489 105.386 193.498 105.386C182.607 105.386 172.697 102.007 165.294 96.4804C160.016 92.5404 149.981 92.5404 144.703 96.4804C137.3 102.007 127.389 105.386 116.499 105.386C105.479 105.386 95.4631 101.927 88.0326 96.2833C83.1832 92.6003 74.8152 92.6003 69.9658 96.2833C62.5353 101.927 52.519 105.386 41.4997 105.386Z" fill="#B42F00"/>
</g>
<defs>
<clipPath id="clip0_31_1159">
<rect width="4313.95" height="105.386" fill="white"/>
</clipPath>
</defs>
</svg>
