<svg width="268" height="80" viewBox="0 0 268 80" fill="none" xmlns="http://www.w3.org/2000/svg">
<rect x="3" y="3" width="261.625" height="74" rx="23" fill="#FFF8ED"/>
<path d="M49.8828 54.5469H37.6016V33.0313H23V23.0469H64.4844V33.0313H49.8828V54.5469Z" fill="black"/>
<path d="M68.6094 23H80.8906V54.5H68.6094V23Z" fill="black"/>
<path d="M87.4062 23H99.6875V54.5H87.4062V23Z" fill="black"/>
<path d="M106.203 23H118.484V54.5H106.203V23Z" fill="black"/>
<path d="M125 23.0234H155.352C161.844 22.9531 167.352 28.4141 167.258 34.9297C167.258 37.2969 166.625 39.4531 165.359 41.375C164.117 43.2734 162.453 44.7266 160.391 45.6875L167.258 54.5234H154.18L148.25 46.8359H137.281V54.5234H125V23.0234ZM152.258 32.2344H137.281V37.6016H152.258C153.008 37.6016 153.641 37.3438 154.156 36.8281C154.695 36.2891 154.953 35.6563 154.953 34.9297C154.953 33.4297 153.758 32.2344 152.258 32.2344Z" fill="black"/>
<path d="M171.078 54.5469V23.0469H227.84V31.1094H183.359V35.1406H227.84V42.4297H183.359V46.4609H227.84V54.5469H171.078Z" fill="black"/>
<path d="M232.344 23.3309H244.625V40.6953H232.344V23.3309ZM232.344 45.3125H244.625V54.5234H232.344V45.3125Z" fill="black"/>
<rect x="3" y="3" width="261.625" height="74" rx="23" stroke="black" stroke-width="5"/>
</svg>
